<svg xmlns="http://www.w3.org/2000/svg" viewBox="0 0 133.32 69.28"><defs><style>.cls-1{fill:#ff0007;}</style></defs><g id="Capa_2" data-name="Capa 2"><g id="Layer_2" data-name="Layer 2"><path class="cls-1" d="M125.64,29.29l-.75.34c-.4,0-.89,0-1.1-.36-.4-.67-1-.62-1.61-.61-.78,0-1.55,0-2.33,0a.83.83,0,0,0-.67.22l-4.07,4.3h0a32.77,32.77,0,0,0-2.47,2.53,1.53,1.53,0,0,1-1.18.48c-4.57,0-9.13,0-13.7,0H88.93a1,1,0,0,0-1,1.05c.06.49.54.22.8.22,8.33,0,16.67,0,25,.06a5,5,0,0,0,4.26-1.7c.31-.37.5-.6.33-1.14a3.44,3.44,0,0,1,1.86-4.13,3.5,3.5,0,0,1,4.41,5.07,3.41,3.41,0,0,1-3.78,1.47,1.12,1.12,0,0,0-1.24.3c-.54.53-1.12,1-1.66,1.55a1.87,1.87,0,0,1-1.42.56q-14.45,0-28.88,0H87c-.39,0-.44.18-.3.52s.56.49,1,.49h31.76c.27,0,.55,0,.78-.24a1.47,1.47,0,0,1,1.86-.4,1.34,1.34,0,0,1,.62,1.5c-.17.66-.74.9-1.29,1.15-.14.06-.25,0-.36-.12a3.06,3.06,0,0,0-2.13-.84c-1.17.12-2.36,0-3.54,0a2.34,2.34,0,0,0-.91.06c.56.84.78,1,1.65,1a1.43,1.43,0,0,1,.7.21,1.4,1.4,0,0,1,.49,1.66,1.34,1.34,0,0,1-1.46.81A1.27,1.27,0,0,1,114.73,44a1.26,1.26,0,0,0-.48-1.15,7.15,7.15,0,0,1-.61-.62,1.83,1.83,0,0,0-1.52-.63q-11.78,0-23.54,0c-1,0-1,0-.52.85.14.27.42.51,0,.87s-1.17.77-1.14,1.31.8.9,1.17,1.4a1.44,1.44,0,0,0,1.28.55c3.47,0,7,.12,10.42-.06a4.61,4.61,0,0,1,4.54,2,1,1,0,0,0,1,.44,1.24,1.24,0,0,1,1.35,1.38,1.27,1.27,0,0,1-1.33,1.29A1.35,1.35,0,0,1,104,50.22a5.4,5.4,0,0,0-2.42-2.78h-.13c-4,0-8,0-12,0a2.39,2.39,0,0,1-2.32-.93c-.2-.29-.51-.5-.74-.77s-.48-.36-.79,0c-.71.74-1.47,1.43-2.16,2.18a.79.79,0,0,1-1.16.16c-.78-.48-1.59-.91-2.37-1.38a.68.68,0,0,0-.8,0,21.7,21.7,0,0,1-6.84,2.92.68.68,0,0,0-.57.56c-.22.87-.49,1.72-.7,2.58a.69.69,0,0,1-.8.6c-1.8,0-3.61,0-5.41,0-1.6,0-1.62,0-2-1.52-.13-.52-.37-.65-.88-.65H31.73a1.32,1.32,0,0,1-1.05-.45C28.86,48.82,27,47,25.19,45.06a1.36,1.36,0,0,0-1.06-.45H9c-.22,0-.5-.09-.64.09-.73.9-2.14,1.34-2,2.87a1.1,1.1,0,0,1-.13.44,1.39,1.39,0,0,1-1.48.63A1.43,1.43,0,0,1,3.68,47.5c.12-1,.45-1.53,1.17-1.5,1,0,1.28-.74,1.79-1.3-1.26-.07-2.5-.08-3.73-.07a.47.47,0,0,0-.33.19c-.82.78-1.28.83-2.17.25l0,0c0-.06-.07-.11-.1-.16l-.18-.1h0a1.45,1.45,0,0,1,.9-2c.55,0,1.12,0,1.45.48a1,1,0,0,0,1,.46l12.57,0h1.5c-.51-.56-.83-1.08-1.63-1a1.3,1.3,0,0,1-1.35-1.35A1.36,1.36,0,0,1,15.89,40a1.17,1.17,0,0,1,1.33,1.18c-.12.85.4,1.2.89,1.68a2.82,2.82,0,0,0,2.27.82c1.43-.07,2.86,0,4.28,0a1.53,1.53,0,0,1,1.23.53C27.58,46,29.3,47.7,31,49.47a1.26,1.26,0,0,0,1,.46c9.87,0,19.74,0,29.62,0,.18,0,.39.07.57-.1-.08-.06-.12-.12-.17-.14a24.3,24.3,0,0,1-6.94-2.89.69.69,0,0,0-.8.07c-.72.41-1.45.79-2.13,1.25-.53.35-.9.33-1.28-.19a2,2,0,0,0-1.78-.81c-5.58,0-11.15,0-16.72,0a1.35,1.35,0,0,1-1.05-.43c-2.15-2.19-4.32-4.35-6.47-6.53q-4.74-4.77-9.45-9.55a1.31,1.31,0,0,0-1-.42c-1.78,0-3.57,0-5.35,0-.23,0-.5-.09-.64.21-.93.9-1.69.86-2.46-.14a2.44,2.44,0,0,0-.1-.24v-.69c.57-1.06,1.61-1.35,2.31-.58a1.21,1.21,0,0,0,1,.41c1.92,0,3.83,0,5.75,0a1.21,1.21,0,0,1,1,.38c1.66,1.67,3.34,3.32,5,5L31.7,45.31a1.59,1.59,0,0,0,1.23.53c5,0,10,0,15,0,.19,0,.41.08.58-.14a2.68,2.68,0,0,0-2.3-1.25c-4.33.07-8.65,0-13,0a2.07,2.07,0,0,1-1.63-.68Q23.88,35.85,16.06,28a1,1,0,0,0-.81-.35H6.89c-.24,0-.49,0-.66.21a1.51,1.51,0,0,1-1.72.55h0l-.11-.07a.11.11,0,0,0-.09-.05l0,0h0l-.13-.1-.27-.37a2.06,2.06,0,0,1,0-1.32c.84-.79,1.56-.92,2.14-.27a1.44,1.44,0,0,0,1.23.47c2.85,0,5.71,0,8.56,0a1.21,1.21,0,0,1,1,.34q7.82,8,15.67,16a1.4,1.4,0,0,0,1.11.47c3.85,0,7.7,0,11.56,0,.51,0,1,.18,1.18-.68.11-.69.27-.66-.46-.66-3.81,0-7.62,0-11.43,0a1.44,1.44,0,0,1-1.17-.49c-1.41-1.49-2.85-2.94-4.28-4.41L17.68,25.53a3.05,3.05,0,0,0-2.45-1.07c-3.28.09-6.56.05-9.83,0a1.89,1.89,0,0,0-1.85.73,2.72,2.72,0,0,1-1.17.07,1.42,1.42,0,0,1-.25-2.48A1.39,1.39,0,0,1,3.85,23a1.16,1.16,0,0,0,1.05.41c3.9,0,7.8,0,11.7,0a1.35,1.35,0,0,1,1.06.44c1.07,1.12,2.18,2.22,3.28,3.33.78.83,1.56,1.68,2.36,2.5q5.22,5.37,10.44,10.73a1.33,1.33,0,0,0,1,.47c2.29,0,4.59,0,6.88,0,1.67,0,3.34,0,5,0a.88.88,0,0,0,.82-1.42,20.08,20.08,0,0,1-1.34-2.61.74.74,0,0,0-.81-.52c-1.9,0-3.79,0-5.68,0a3.59,3.59,0,0,1-2.7-.85c-.63-.56-1.39-1-2-1.48a1.66,1.66,0,0,0-1.77-.4,2.87,2.87,0,0,1-1.06.07A4.88,4.88,0,0,1,29,25.11a4.91,4.91,0,0,1,7.88,5.35c-.09.25-.33.51,0,.76.92.65,1.84,1.32,2.77,2a.85.85,0,0,0,.44.14c1.43,0,2.85,0,4.28,0,.15,0,.32,0,.39-.17A1.19,1.19,0,0,0,44.17,32c-.79-.22-1.58-.49-2.38-.63a1,1,0,0,1-.93-1.21,1.69,1.69,0,0,0-.27-1.44q-5.66-6.15-11.27-12.34c-.42-.46-.8-.86-1.51-.69a1.71,1.71,0,0,1-.72-.12l-.41-.29a1.5,1.5,0,0,0-.09-.32,1.14,1.14,0,0,1,.27-1.49,1.3,1.3,0,0,1,1.52-.34,1.21,1.21,0,0,1,.83,1.31,1.2,1.2,0,0,0,.42,1L40.27,26.84a1.16,1.16,0,0,0,.6.46c0-1,0-2,0-3a.78.78,0,0,0-.23-.54L30.78,12.45A.9.9,0,0,0,30,12.1H24.62c-.26,0-.49,0-.61.31a4.49,4.49,0,0,1-1.31,1.65h0a1.45,1.45,0,0,0-.67.38h0a4.78,4.78,0,0,1-3.58-.3h-.14a12.93,12.93,0,0,1-1-1.2,3.88,3.88,0,0,1,1.27-5.46c.1,0,.19,0,.23-.12l0,0L19.91,7c0-.05.05-.09.07-.14h0c0,.13.05.11.12.11H21L21,7h0a4,4,0,0,1,2.79,2,1,1,0,0,0,1.09.63c2.1,0,4.19,0,6.28,0a1.06,1.06,0,0,1,.9.32c1.27,1.47,2.56,2.91,3.83,4.37L43.1,22.4c.16.18.31.42.61.27s.68,0,.79-.49A1.12,1.12,0,0,0,44.25,21C42.61,19.3,41,17.55,39.38,15.8L29,4.57a1.37,1.37,0,0,0-1.11-.48q-5.58,0-11.16,0a1.11,1.11,0,0,0-1.12.64c-.85.88-1.69,1.76-2.54,2.63a1.06,1.06,0,0,0-.38,1,1.27,1.27,0,0,1-1,1.48,1.3,1.3,0,0,1-1.5-.71A1.65,1.65,0,0,1,10.4,7.4c.54-.27,1.24,0,1.72-.5.75-.8,1.5-1.58,2.25-2.37.1-.11.27-.21.17-.39s-.25-.08-.37-.08H8.57c-.2,0-.41,0-.48.24-.35.66-1,.58-1.56.55a1.35,1.35,0,0,1-.94-1.59,1.3,1.3,0,0,1,1-1A1.44,1.44,0,0,1,8,2.59c.12.43.47.39.8.39L20.88,3c2.45,0,4.89,0,7.34,0a1.58,1.58,0,0,1,1.41.56,3.27,3.27,0,0,0,.28.37c2.64,2.85,5.25,5.74,7.9,8.6,1.66,1.79,3.29,3.62,4.92,5.44.72.81,1.46,1.59,2.25,2.44a24.12,24.12,0,0,1,1.77-4.09.63.63,0,0,0-.13-.87L38.37,6.64c-.14-.16-.27-.34-.55-.28a1.56,1.56,0,0,1-1.58-.65,2,2,0,0,1,.26-1.8,5.6,5.6,0,0,1,.7-.2,1.31,1.31,0,0,1,1.62,1.37,1.23,1.23,0,0,0,.43,1.09q3.78,4,7.54,8c.22.23.45.44.71.7.11-.36-.08-.52-.19-.7-.43-.78-.87-1.56-1.33-2.32-.15-.26-.24-.48,0-.7s.14-.53-.09-.77C43.67,8,41.42,5.58,39.19,3.19a1.19,1.19,0,0,0-1.08-.49,1.24,1.24,0,0,1-1.31-.85A1.38,1.38,0,0,1,37.25.33,1.35,1.35,0,0,1,38.76.16a1.28,1.28,0,0,1,.7,1.4.76.76,0,0,0,.19.72q3.48,3.66,6.93,7.33c.35.37.57.36.92,0,1.07-1.1,2.19-2.15,3.26-3.26a.59.59,0,0,1,.86-.11c.7.42,1.44.79,2.15,1.22a1,1,0,0,0,1.11,0A19.9,19.9,0,0,1,61.55,4.8a.87.87,0,0,0,.73-.73c.21-.89.48-1.76.7-2.65a.65.65,0,0,1,.74-.58c2.16,0,4.33,0,6.49,0a.65.65,0,0,1,.74.58c.21.8.48,1.57.65,2.38a1.12,1.12,0,0,0,1,1,21.61,21.61,0,0,1,2.49.75,1.69,1.69,0,0,0,1.34,0c1.24-.51,2.49-1,3.72-1.51a4.92,4.92,0,0,1,2-.37h20.26c2.61,2.29,5.2,4.62,7.88,6.83a.81.81,0,0,0,.29.13h11.66a.46.46,0,0,0,.51-.41c.13,0,.15-.12.12-.23l.44-.13a1.38,1.38,0,0,1,1.79.69,1.29,1.29,0,0,1-.5,1.67,1.26,1.26,0,0,1-1.85-.3c-.1-.15-.15-.4-.43-.32a.12.12,0,0,0-.13,0h-.26a.15.15,0,0,0-.13,0h-3.75c-2.29,0-4.58,0-6.87,0a1.86,1.86,0,0,1-1.38-.49c-.81-.77-1.66-1.48-2.51-2.2-.16-.13-.29-.42-.58-.24v0c.2-.21,0-.28-.14-.39-1.22-1.08-2.46-2.15-3.66-3.25a1.64,1.64,0,0,0-1.19-.46c-6.3,0-12.61.09-18.91,0C80.65,4.48,79,5.57,76.9,6.2l2.64,1.49c.22.12.39,0,.56-.12.82-.45,1.64-.9,2.44-1.38a.66.66,0,0,1,1,.11c1.46,1.5,3,3,4.44,4.45a1.61,1.61,0,0,0,1.28.54h12.49c.87,0,1.74,0,2.61,0l.22.11.12.08.09.1c.31.45.85.6,1.21,1a14.75,14.75,0,0,0,2.14,1.81c1.47,1.38,3.07,2.63,4.61,3.92a.7.7,0,0,0,.43.17c1.64,0,3.28.09,4.92-.05.26.11.35-.08.48-.23a1.4,1.4,0,0,1,2.19-.2l.09.18a1.34,1.34,0,0,1-.39,1.88,1.32,1.32,0,0,1-1.85-.37.82.82,0,0,0-.76-.31h-4.34a1.53,1.53,0,0,1-1.1-.38c-2.48-2.11-5-4.19-7.45-6.3a1.69,1.69,0,0,0-1.19-.46c-5,0-9.9,0-14.85,0-.66,0-1.12.13-1.35.78-.08.23-.38.44-.26.65s.48.12.73.12h15a1.61,1.61,0,0,1,1.16.4c2.19,2,4.53,3.89,6.72,5.92a3.82,3.82,0,0,0,2.86,1.07c3.81-.07,7.62,0,11.43,0,.25,0,.59.12.69-.23a7.6,7.6,0,0,1,1-1.59,3.81,3.81,0,1,1,4.8,5.9.38.38,0,0,0-.29.2l-.28.15-.39.09a3.72,3.72,0,0,1-4.63-2,.87.87,0,0,0-.94-.6c-4.54,0-9.09,0-13.64,0a1.36,1.36,0,0,1-1-.35c-2.46-2.19-5-4.35-7.42-6.53a1.79,1.79,0,0,0-1.26-.48c-4.52,0-9,0-13.57,0h-.67c-.18,0-.29.06-.25.28A1.7,1.7,0,0,0,89,17.36c4.26,0,8.52,0,12.77,0a1.64,1.64,0,0,1,1.14.43c2.38,2.09,4.78,4.15,7.16,6.23a1.85,1.85,0,0,0,1.38.52c1.27,0,2.54,0,3.81,0,.67,0,1.34.07,1.75-.64a.45.45,0,0,1,.27-.17,1.55,1.55,0,0,1,1.77.72,1.41,1.41,0,0,1-.48,1.67,1.3,1.3,0,0,1-1.8-.29,1,1,0,0,0-.92-.38h-4.54a1.34,1.34,0,0,1-1-.3c-1.93-1.68-4-3.26-5.78-5a6.11,6.11,0,0,0-4.9-1.9c-3.47.18-7,.07-10.43.05-.61,0-.69.16-.45.68a15.5,15.5,0,0,1,.94,3,.68.68,0,0,0,.55.57c.87.22,1.72.49,2.58.7.44.11.65.3.61.78s0,1.07,0,1.6.14.62.61.61c2.12,0,4.23,0,6.35,0a1,1,0,0,0,1-.6,3.25,3.25,0,0,1,3.3-1.7,3.29,3.29,0,0,1,3,2.19,3.5,3.5,0,0,1-6.39,2.85c-.12-.23-.2-.41-.52-.41-2.29,0-4.59,0-6.88,0-.35,0-.48.14-.46.48s0,.94,0,1.4-.18.69-.63.8c-.91.21-1.82.46-2.71.71-.25.07-.58.14-.51.5s.39.21.61.21h15.58a1,1,0,0,0,.94-.43,1.35,1.35,0,0,1,2,0,1.39,1.39,0,0,1,0,1.88,1.36,1.36,0,0,1-2-.06,1.15,1.15,0,0,0-1.09-.45H90.28c-1,0-1,0-1.3,1-.13.42-.09.58.42.58,7.09,0,14.18,0,21.26,0a2.44,2.44,0,0,0,2.27-1.24,5.32,5.32,0,0,0,.46-.37c1.53-1.59,3.08-3.16,4.55-4.78a2.23,2.23,0,0,1,2.07-.9,13,13,0,0,0,1.87,0c.73,0,1.52.18,2-.66.06-.12.25-.18.37-.26a1.42,1.42,0,0,1,1.4,2.36M86.51,11.66a.48.48,0,0,0-.18-.38c-1.08-1.07-2.15-2.13-3.22-3.21-.24-.26-.44-.2-.7,0-.75.43-1.52.84-2.26,1.29a.78.78,0,0,1-1,0,20.8,20.8,0,0,0-8-3.29.79.79,0,0,1-.7-.68c-.21-.82-.46-1.63-.67-2.45a.58.58,0,0,0-.65-.51c-1.45,0-2.9,0-4.35,0-.4,0-.54.19-.63.54-.2.8-.46,1.58-.63,2.39a.94.94,0,0,1-.88.82,19.37,19.37,0,0,0-7.8,3.17.74.74,0,0,1-.91,0c-.69-.41-1.4-.78-2.09-1.19a.58.58,0,0,0-.82.1c-1,1-2,2-3,3a.55.55,0,0,0-.13.8c.41.66.76,1.36,1.18,2a1,1,0,0,1,0,1.32,21.44,21.44,0,0,0-3.21,7.87.65.65,0,0,1-.54.57c-.78.2-1.54.46-2.32.63-.5.12-.62.38-.6.85,0,1,0,1.92,0,2.87a2.14,2.14,0,0,0,1.7,2.21,11.66,11.66,0,0,0,1.16.31.94.94,0,0,1,.8.83,22,22,0,0,0,3.31,7.9.62.62,0,0,1,0,.78c-.41.69-.78,1.41-1.19,2.09a.64.64,0,0,0,.09.93c1,1,2.05,2,3,3a.54.54,0,0,0,.8.09c.72-.44,1.46-.86,2.2-1.27.24-.15.47-.3.79-.08a21.06,21.06,0,0,0,7.81,3.32.85.85,0,0,1,.74.73c.16.76.41,1.5.6,2.25a.55.55,0,0,0,.64.52c1.44,0,2.89,0,4.34,0a.54.54,0,0,0,.62-.47c.19-.73.42-1.45.59-2.19.13-.53.35-.87,1-.9a6,6,0,0,0,1.1-.24,21.23,21.23,0,0,0,6.41-3,1,1,0,0,1,1.2,0c.69.46,1.43.82,2.13,1.25a.57.57,0,0,0,.81-.1c1-1,2-2,3-3a.6.6,0,0,0,.12-.87c-.43-.73-.83-1.48-1.26-2.21a.59.59,0,0,1,0-.73,20.65,20.65,0,0,0,3.3-8,.76.76,0,0,1,.64-.65c.84-.2,1.68-.45,2.52-.65a.58.58,0,0,0,.52-.65c0-1.43,0-2.85,0-4.28a.6.6,0,0,0-.49-.68,17.69,17.69,0,0,0-1.86-.51c-.85-.12-1.16-.53-1.31-1.36a18.42,18.42,0,0,0-3.07-7.06,1.13,1.13,0,0,1,0-1.44c.41-.64.77-1.31,1.15-2,.07-.13.14-.27.19-.38M34.33,28.75a2,2,0,1,0-2.07,2,2,2,0,0,0,2.07-2M20.46,12.45a1.61,1.61,0,1,0-1.58-1.64,1.65,1.65,0,0,0,1.58,1.64M128,22.08a1.58,1.58,0,0,0,1.56,1.58,1.59,1.59,0,1,0,0-3.18,1.57,1.57,0,0,0-1.59,1.6m-4.8,11.65a1.43,1.43,0,0,0-1.4-1.47,1.47,1.47,0,1,0,0,2.93,1.45,1.45,0,0,0,1.42-1.46m-17.27-6.4a1.44,1.44,0,0,0-1.43-1.45A1.52,1.52,0,0,0,103,27.31a1.5,1.5,0,0,0,1.5,1.48,1.42,1.42,0,0,0,1.41-1.46M38,5.07a.54.54,0,0,0-.51-.57.5.5,0,0,0-.57.44.5.5,0,0,0,.45.62c.35.06.52-.17.63-.49m-32.4,22a.53.53,0,0,0-.57-.52.5.5,0,0,0-.53.54.52.52,0,0,0,.56.53c.34,0,.51-.22.54-.55m119.61,1.12a.55.55,0,0,0-.6-.46.54.54,0,1,0,.07,1.08c.34,0,.51-.24.53-.62M5,47.84c.31,0,.55-.17.55-.51a.51.51,0,0,0-.52-.57.5.5,0,0,0-.56.51c0,.34.2.51.53.57M7,4.09a.55.55,0,0,0,.54-.56A.5.5,0,0,0,7,3a.54.54,0,0,0-.59.57c0,.33.24.5.56.55m117.5,7a.56.56,0,0,0-.54-.56.51.51,0,0,0-.59.49.52.52,0,0,0,.55.6c.34,0,.51-.22.58-.53m-108,30.24c-.06-.32-.21-.54-.57-.52a.49.49,0,0,0-.51.55.48.48,0,0,0,.51.5c.35,0,.51-.22.57-.53M38.15.82c-.31,0-.56.18-.56.52a.51.51,0,0,0,.54.54.47.47,0,0,0,.52-.48.52.52,0,0,0-.5-.58M11.34,9.1c.33,0,.56-.2.56-.56A.5.5,0,0,0,11.36,8a.5.5,0,0,0-.55.53c0,.34.22.51.53.57m94.08,41.74c.3-.05.53-.2.5-.56a.5.5,0,0,0-.51-.5.51.51,0,0,0-.55.53c0,.34.21.5.56.53M2,44.13c0-.33-.18-.56-.53-.56a.5.5,0,0,0-.56.52.52.52,0,0,0,.53.56c.33,0,.51-.2.56-.52M122,41a.57.57,0,0,0-.57-.51.47.47,0,0,0-.52.49.49.49,0,0,0,.5.58c.33,0,.51-.21.59-.56m-1.69-22.13c-.05-.33-.21-.54-.56-.54a.52.52,0,0,0-.53.56.49.49,0,0,0,.55.52.52.52,0,0,0,.54-.54M28.42,14.31a.54.54,0,0,0-.59-.47.5.5,0,0,0-.47.6.46.46,0,0,0,.53.47c.33,0,.51-.22.53-.6M118.35,25a.5.5,0,0,0-.55-.52.48.48,0,0,0-.53.48.5.5,0,0,0,.51.58.52.52,0,0,0,.57-.54M7.71,29.64a.5.5,0,0,0-.55-.53.51.51,0,0,0-.53.56.49.49,0,0,0,.55.52.5.5,0,0,0,.53-.55M3.45,24c-.05-.3-.19-.54-.55-.53a.5.5,0,0,0-.54.54.48.48,0,0,0,.53.54c.35,0,.53-.19.56-.55m113.15,20a.52.52,0,0,0-.58-.45.52.52,0,1,0,.09,1c.3,0,.48-.21.49-.58m-8.32-10.89a.49.49,0,0,0-.51-.5c-.33,0-.56.18-.54.54a.47.47,0,0,0,.51.49c.35,0,.51-.21.54-.53"/><path class="cls-1" d="M72,59.14c1.54,0,3.08,0,4.61,0,.6,0,.74.23.63.77-.24,1.09-.47,2.18-.68,3.27-.09.46-.45.65-.76.89s-.48.48-.12.79a1.06,1.06,0,0,1,.26,1.21c-.19.76-.34,1.53-.51,2.29a.93.93,0,0,1-1,.82H65.22c-.73,0-.88-.2-.73-.9.58-2.77,1.19-5.53,1.75-8.3a.91.91,0,0,1,1.06-.84c1.56,0,3.12,0,4.68,0Zm-.66,4c1,0,2.09,0,3.13,0s.65-.72.74-1.15-.4-.34-.65-.34c-1.88,0-3.77,0-5.66,0-.94,0-1,0-1.12,1-.06.37,0,.52.43.51,1,0,2.09,0,3.13,0m-.76,3.5h3.27c.45,0,.48-.3.55-.61s-.1-.36-.33-.36c-2.19,0-4.37,0-6.55,0-.46,0-.46.35-.5.65s.27.32.49.32h3.07"/><path class="cls-1" d="M120.18,69.17H115.9c-.72,0-.83-.15-.7-.85.31-1.68.31-1.68,2-1.68h6.29c.22,0,.46.07.63-.11a.73.73,0,0,0,.17-.63c-.06-.32-.35-.21-.55-.21-2.34,0-4.68,0-7,0-.85,0-1-.15-.8-1,.33-1.57.69-3.13,1-4.7a.85.85,0,0,1,1-.8q3.18,0,6.35,0c.75,0,1.49,0,2.24,0,.48,0,.71.23.62.71-.12.7-.26,1.4-.41,2.09-.1.49-.49.5-.89.5s-.63,0-.61-.5c0-.29-.18-.31-.39-.31-1.9,0-3.79,0-5.69,0-.4,0-.71.56-.68,1.17s.42.31.66.31c2.12,0,4.23,0,6.35,0,.87,0,1,.13.79,1-.3,1.43-.63,2.87-.93,4.3a.75.75,0,0,1-.88.68h-4.28Z"/><path class="cls-1" d="M44.73,65.77l5.18,1.6c.35.11.81.14.65.71-.21.76-.69,1.18-1.23,1-.92-.25-1.83-.55-2.74-.83-1.13-.34-2.27-.66-3.39-1-.56-.19-.78,0-.83.53a.59.59,0,0,1,0,.13c-.24,1.25-.71,1.54-2,1.24-.29-.07-.39-.21-.32-.51.63-2.87,1.26-5.74,1.86-8.61a1,1,0,0,1,1.14-.93c2.78,0,5.57,0,8.35,0,.7,0,.86.18.72.84-.33,1.66-.7,3.31-1,5-.12.57-.49.73-1,.73q-2.37,0-4.74,0a.72.72,0,0,0-.6.13M47,61.6H44.22c-.52,0-.75.37-.76,1.15,0,.55.43.34.68.34,1.63,0,3.26,0,4.88,0,1,0,.95,0,1.13-1,.1-.49-.09-.57-.51-.56-.87,0-1.74,0-2.61,0"/><path class="cls-1" d="M82,69.16c-1.54,0-3.08,0-4.61,0-.58,0-.75-.19-.62-.77q.95-4.34,1.85-8.67a.64.64,0,0,1,.72-.6h9.49c.68,0,.83.18.68.87-.5,2.39-1,4.78-1.53,7.18-.45,2.18-.34,2-2.51,2H82ZM83,66.64h0c1,0,2,0,3.07,0,.42,0,.59-.15.67-.55.26-1.28.54-2.57.83-3.85.1-.43,0-.61-.49-.6H80.91a.59.59,0,0,0-.69.54c-.27,1.3-.54,2.61-.84,3.91-.09.42,0,.56.45.55,1,0,2.09,0,3.14,0"/><path class="cls-1" d="M23.52,59.13h4.54c.79,0,.92.16.76.92-.57,2.74-1.16,5.48-1.74,8.23a1,1,0,0,1-1,.86H16.72c-.6,0-.72-.29-.6-.82l1.8-8.56c.1-.5.43-.66.92-.65Zm-.23,2.52c-1,0-2.09,0-3.14,0a.54.54,0,0,0-.63.5c-.27,1.32-.55,2.62-.83,3.93-.08.4,0,.57.47.57,2.08,0,4.15,0,6.22,0,.34,0,.54-.1.61-.45.27-1.34.55-2.67.85-4,.09-.43-.05-.56-.47-.55-1,0-2.05,0-3.08,0"/><path class="cls-1" d="M59.22,59.14h4.55c.85,0,1,.14.79.94-.56,2.68-1.12,5.36-1.7,8-.2.91-.38,1-1.33,1H52.64c-.82,0-.93-.12-.77-.89l1.77-8.37a.84.84,0,0,1,1-.77c1.54,0,3.07,0,4.61,0m-1.15,7.5h0c1,0,2,0,3,0a.58.58,0,0,0,.69-.53c.25-1.31.52-2.61.83-3.91.12-.51-.09-.56-.49-.56q-3.08,0-6.14,0c-.44,0-.64.14-.72.57-.24,1.27-.5,2.53-.79,3.78-.13.54.06.67.55.66,1,0,2,0,3.07,0"/><path class="cls-1" d="M110.87,59.14c1.45,0,2.9,0,4.35,0,.53,0,.71.26.63.69-.12.7-.3,1.39-.46,2.09a.66.66,0,0,1-.77.56c-.39,0-.79,0-.78-.55,0-.26-.2-.25-.38-.25h-5.68c-.37,0-.51.19-.57.51-.28,1.33-.55,2.66-.85,4-.12.55.23.47.53.47h5.88c1.62,0,1.62,0,1.29,1.57-.16.81-.32.94-1.16.94-2.74,0-5.49,0-8.23,0-.86,0-1-.17-.84-1,.58-2.72,1.18-5.44,1.74-8.17a.93.93,0,0,1,1.09-.88c1.4,0,2.81,0,4.21,0Z"/><path class="cls-1" d="M11.65,59.17c1.38,0,2.77,0,4.15,0,.8,0,.93.17.77,1-.31,1.54-.31,1.54-1.83,1.54h-6A1.1,1.1,0,0,0,7.89,63c.11.27.39.16.59.16h6.35c.94,0,1.05.14.86,1.06,0,.13,0,.26-.08.39-.19,1-.28,1.06-1.26,1.06-2.12,0-4.24,0-6.35,0-.57,0-.78.19-.87.73-.12.7-.36,1.38-.48,2.08a.69.69,0,0,1-.82.66c-.2,0-.4,0-.6,0-.48,0-.71-.17-.61-.68.61-2.88,1.21-5.75,1.82-8.63a.82.82,0,0,1,.93-.67Z"/><path class="cls-1" d="M37.81,69.14a1.1,1.1,0,0,1-.81-.32c-.81-.73-1.66-1.43-2.44-2.19a.8.8,0,0,0-1.2-.11c-1.23.84-2.5,1.63-3.76,2.43a.76.76,0,0,1-1.26-.43c-.14-.52.23-.78.58-1,1-.72,2-1.43,3.06-2.15a3.15,3.15,0,0,0,.54-.49.93.93,0,0,0,0-1.42c-.74-.8-1.47-1.61-2.2-2.43-.52-.57-.49-.79.12-1.39s.9-.52,1.38,0c.84.87,1.66,1.75,2.45,2.65.33.38.56.36.93.07q1.86-1.41,3.77-2.78c.73-.52,1.26-.32,1.46.47.11.44-.16.67-.45.89l-3,2.23-.32.24c-1.07.87-1.1,1.21-.16,2.19.63.66,1.28,1.3,1.93,1.94.29.28.47.62.27,1a1.32,1.32,0,0,1-.89.69"/><path class="cls-1" d="M95.87,59.15h4.21c.7,0,.83.18.73.85-.25,1.63-.29,1.66-1.93,1.66-.76,0-1.51,0-2.27,0a.52.52,0,0,0-.6.48q-.62,3-1.25,6.08c-.08.4-.15.83-.69.92-.86.14-1.06-.05-.89-.9.41-1.93.81-3.87,1.26-5.81.13-.58,0-.8-.61-.77-.93,0-1.87,0-2.81,0-.56,0-.7-.27-.61-.75a.17.17,0,0,1,0-.07c.3-1.69.3-1.69,2-1.7h3.4"/><path class="cls-1" d="M104,59.83c-.26,1.2-.53,2.49-.8,3.77-.33,1.52-.64,3.05-1,4.57a1.38,1.38,0,0,1-1.94,1c-.24-.1-.35-.22-.3-.49.64-2.93,1.26-5.87,1.9-8.8a1.43,1.43,0,0,1,2-.54c.13.12.12.27.12.51"/><path class="cls-1" d="M51.89,13.67l3.76,3.19,7,6a1.56,1.56,0,0,0,1.09.41q3.51,0,7,0a1.42,1.42,0,0,0,1-.38Q76.87,18.48,82,14.1a1.58,1.58,0,0,1,.66-.43c0,.27,0,.53,0,.78,0,5.17,0,10.35,0,15.51a1.85,1.85,0,0,1-.63,1.46q-7.26,7.15-14.5,14.34c-.31.3-.5.33-.82,0-4.6-4.59-9.19-9.2-13.86-13.72A3.75,3.75,0,0,1,51.69,29c.06-4.81,0-9.63,0-14.44v-.79Zm1.36,3.07a1.82,1.82,0,0,0-.08.35c0,2.39,0,4.77,0,7.16a1,1,0,0,0,.37.74q4.72,4.73,9.45,9.44a1.31,1.31,0,0,0,1.06.43q3.12,0,6.22,0a1.35,1.35,0,0,0,1-.46q4.78-4.93,9.61-9.85a1.23,1.23,0,0,0,.36-1c0-2,0-4,0-6,0-.19.09-.45-.09-.56s-.39.14-.55.26c-2.86,2.2-5.56,4.6-8.3,7a1.49,1.49,0,0,1-1,.38H63.09a1.38,1.38,0,0,1-1-.36l-6.85-5.87-2-1.71m28,9.65a1.77,1.77,0,0,0-.73.58L67.86,40c-.64.65-.64.66-1.28,0l-7.81-7.79q-2.55-2.55-5.11-5.09c-.11-.11-.21-.35-.41-.26s-.11.32-.11.49c0,.76,0,1.52,0,2.27a1.24,1.24,0,0,0,.43,1c2.26,2.23,4.52,4.48,6.78,6.72s4.24,4.2,6.34,6.32c.41.42.7.42,1.08,0s.88-.89,1.32-1.33q5.88-5.79,11.74-11.6c.18-.18.45-.35.46-.64,0-1.21,0-2.42,0-3.7M65,36.27l-.08.15,2,1.9c.13.13.28.29.46.11.68-.68,1.34-1.37,2.11-2.16Z"/></g></g></svg>