<svg xmlns="http://www.w3.org/2000/svg" viewBox="0 0 71.22 109.89"><defs><style>.cls-1{fill:#8500fc;}</style></defs><g id="Capa_2" data-name="Capa 2"><g id="Layer_2" data-name="Layer 2"><path class="cls-1" d="M3.25,36.39a3.91,3.91,0,0,0,.76.07A4,4,0,0,0,8,33.22a41.42,41.42,0,0,1,6-13.75A26.4,26.4,0,0,1,44.21,9.41a24.26,24.26,0,0,1,6,2.9h0a3.62,3.62,0,0,0,.56.37A4,4,0,0,0,55,5.91a35.33,35.33,0,0,0-27.29-5,34.44,34.44,0,0,0-20.38,14A49.29,49.29,0,0,0,.07,31.7a4,4,0,0,0,3.18,4.69"/><path class="cls-1" d="M69.41,28.94a33.87,33.87,0,0,0-5.2-10A4.22,4.22,0,0,0,58.89,18a3.67,3.67,0,0,0-1.24,4.25,46.12,46.12,0,0,1,4.29,9.79,24.45,24.45,0,0,1,.94,8.71c0,.15,0,.32-.16.46-.12-.76-.21-1.47-.34-2.17C60.63,29.74,55.86,22.17,48.81,16a3.62,3.62,0,0,0-4.88,5.33c.5.51,1,1,1.55,1.49,5.5,5.32,9,11.64,9.94,19.32a22.11,22.11,0,0,1-.11,6c-.1-.35-1.93-10.83-7.92-18.76a39.7,39.7,0,0,0-7.22-7.26,3.64,3.64,0,1,0-4.55,5.67,46.23,46.23,0,0,1,3.73,3.41,20,20,0,0,1,2.1,2.43h0c6.75,9.55,5.14,18.57,5.14,18.57a33.85,33.85,0,0,0-3.72-11.2h0a29.51,29.51,0,0,0-7.46-9.16,3.32,3.32,0,1,0-4.21,5.13c.36.32.71.65,1,1a17.27,17.27,0,0,1,4.07,6.31c3.08,8.48-1.63,14.93-4,17.48a8.75,8.75,0,0,1-2.21,1.76,16.7,16.7,0,0,1-2.19,1,14.13,14.13,0,0,1-17.11-6.58,21.23,21.23,0,0,1-2.07-5.45,29.31,29.31,0,0,1-.83-5.6,3.57,3.57,0,0,0-2-3.3,3.52,3.52,0,0,0-3.22,0,3.44,3.44,0,0,0-2,3.24,42.94,42.94,0,0,0,2,12,31.68,31.68,0,0,0,6.76,11.7c2.08,2.46,4.31,4.79,6.36,7.28a22,22,0,0,1,3.24,5,7.21,7.21,0,0,1,.77,2.42c.07,1,.08,2,.1,2.95s0,1,1,1H49.1c.69,0,.75-.07.79-.73.09-1.5.12-3,.25-4.49A20.5,20.5,0,0,1,56.71,70.2a48.56,48.56,0,0,0,9.5-11.81,36.89,36.89,0,0,0,4.94-16.08,34.88,34.88,0,0,0-1.74-13.37"/><path class="cls-1" d="M49.42,97.87a4,4,0,0,0-1.19-.13H27.47c-2.12,0-4.24,0-6.36,0a2.58,2.58,0,0,0-2.57,2.5,2.65,2.65,0,0,0,2.25,2.81,5.37,5.37,0,0,0,.9.07H48.11a6.61,6.61,0,0,0,1-.08,2.67,2.67,0,0,0,.32-5.19"/><path class="cls-1" d="M21.45,96.17H34.91c4.55,0,9.1,0,13.65,0A2.68,2.68,0,0,0,49,90.83a7.31,7.31,0,0,0-1.05-.07h-26a5.92,5.92,0,0,0-1.19.1,2.69,2.69,0,0,0,.75,5.32"/><path class="cls-1" d="M41.48,104.51c-4.39,0-8.77,0-13.15,0a2.62,2.62,0,0,0-1.5.48,2.68,2.68,0,0,0-1.07,3,2.61,2.61,0,0,0,2.54,1.9c2.22,0,4.43,0,6.65,0h6.6a2.47,2.47,0,0,0,2-.93A2.58,2.58,0,0,0,44,106.2a2.52,2.52,0,0,0-2.48-1.69"/></g></g></svg>