<svg xmlns="http://www.w3.org/2000/svg" viewBox="0 0 109.56 109.56"><defs><style>.cls-1{fill:#ff0007;}</style></defs><g id="Capa_2" data-name="Capa 2"><g id="Layer_2" data-name="Layer 2"><path class="cls-1" d="M19.27,84.72A8.93,8.93,0,0,0,15,85.83,50.5,50.5,0,0,1,54.78,4.28a51.13,51.13,0,0,1,10,1,2.14,2.14,0,1,0,.85-4.19A55.13,55.13,0,0,0,54.78,0a54.78,54.78,0,0,0-43,88.73,9,9,0,1,0,7.48-4M22.6,97A4.71,4.71,0,1,1,24,93.71,4.67,4.67,0,0,1,22.6,97"/><path class="cls-1" d="M97.77,20.83A9,9,0,0,0,96.64,9.49a9,9,0,1,0-6.35,15.34,8.88,8.88,0,0,0,4.31-1.1,50.5,50.5,0,0,1-49.78,80.56,2.14,2.14,0,0,0-.84,4.2A54.78,54.78,0,0,0,97.77,20.83M87,19.17a4.71,4.71,0,0,1,6.66-6.65A4.71,4.71,0,0,1,87,19.17"/><path class="cls-1" d="M93.73,50.27c0-.43-.14-.6-.59-.59-1.09,0-2.17,0-3.26,0a2.51,2.51,0,0,1-2.68-2.15,33.1,33.1,0,0,0-4.4-10.62,2.43,2.43,0,0,1,.37-3.36c.77-.79,1.55-1.58,2.34-2.34.29-.28.34-.47,0-.78-2.17-2.14-4.31-4.29-6.46-6.45-.26-.26-.43-.29-.7,0-.79.82-1.6,1.62-2.41,2.42a2.43,2.43,0,0,1-3.32.36c-.82-.51-1.65-1-2.51-1.45a33.77,33.77,0,0,0-8.26-3,2.42,2.42,0,0,1-2-2.52c0-1.12,0-2.24,0-3.36,0-.45-.15-.6-.59-.59-1.48,0-3,0-4.44,0H50.37c-.47-.05-.63.16-.63.62,0,1.09,0,2.17,0,3.26a2.48,2.48,0,0,1-2.16,2.62A33,33,0,0,0,37,26.74a2.5,2.5,0,0,1-3.41-.39C32.77,25.57,32,24.8,31.21,24c-.25-.26-.43-.29-.7,0Q27.27,27.24,24,30.47c-.26.25-.25.42,0,.66.8.77,1.57,1.56,2.35,2.34a2.52,2.52,0,0,1,.38,3.5,33.08,33.08,0,0,0-4.39,10.68,2.45,2.45,0,0,1-2.56,2c-1.1,0-2.21,0-3.31,0-.48,0-.66.13-.66.63q0,4.44,0,8.87c0,.46.15.64.62.63q1.68,0,3.36,0a2.46,2.46,0,0,1,2.46,1.77,34.49,34.49,0,0,0,4.6,11.15,2.4,2.4,0,0,1-.38,3.16c-.82.83-1.65,1.67-2.49,2.48-.25.24-.26.41,0,.66q3.27,3.26,6.52,6.53c.25.25.42.25.67,0,.78-.8,1.58-1.59,2.38-2.38A2.5,2.5,0,0,1,37,82.79a32.93,32.93,0,0,0,10.48,4.35A2.54,2.54,0,0,1,49.74,90c0,1,0,2.1,0,3.16,0,.45.16.62.63.62,3,0,5.94,0,8.92,0,.43,0,.6-.14.59-.59,0-1.12,0-2.24,0-3.36a2.43,2.43,0,0,1,2.05-2.59A33.54,33.54,0,0,0,72.6,82.78a2.51,2.51,0,0,1,3.45.38c.78.78,1.57,1.55,2.34,2.35.26.26.43.33.74,0q3.2-3.24,6.44-6.45c.26-.27.28-.45,0-.71-.74-.71-1.45-1.44-2.17-2.16C82.06,74.87,82,73.93,83,72.33a32.73,32.73,0,0,0,4.22-10.27A2.57,2.57,0,0,1,90,59.79c1,0,2.1,0,3.16,0,.44,0,.59-.17.59-.61q0-4.45,0-8.92M54.79,73.91A19.13,19.13,0,1,1,73.91,54.78,19.19,19.19,0,0,1,54.79,73.91"/><path class="cls-1" d="M66.1,54.75A11.31,11.31,0,1,1,54.75,43.46,11.33,11.33,0,0,1,66.1,54.75"/></g></g></svg>