<svg xmlns="http://www.w3.org/2000/svg" viewBox="0 0 40.01 40"><g id="Capa_2" data-name="Capa 2"><g id="ListadoTaller"><path d="M2.61,39.5l-.15,0A2.22,2.22,0,0,1,.89,38.38a4.62,4.62,0,0,1-.29-.7c0-.1-.06-.19-.1-.29V19.25l.12-.32a4,4,0,0,1,.32-.72,2.38,2.38,0,0,1,2.14-1.05H15.26l.32,0a2.38,2.38,0,0,1,2.24,2.35q0,8.79,0,17.59a2.21,2.21,0,0,1-1.2,2,2.76,2.76,0,0,1-.63.25l-.26.09Z"/><path d="M3.08,17.66H15.26l.28,0a1.88,1.88,0,0,1,1.78,1.85c0,6.35,0,12.1,0,17.59a1.72,1.72,0,0,1-.95,1.61,2.27,2.27,0,0,1-.53.2l-.2.07H2.69l-.13,0a1.74,1.74,0,0,1-1.23-.84,3.21,3.21,0,0,1-.25-.61c0-.07-.05-.15-.08-.22v-18l.09-.23a3.36,3.36,0,0,1,.27-.62,1.87,1.87,0,0,1,1.71-.83h0m0-1A2.85,2.85,0,0,0,.53,17.94,6.92,6.92,0,0,0,0,19.15V37.48a8.36,8.36,0,0,0,.46,1.15,2.71,2.71,0,0,0,1.9,1.31l.16.06H15.81a8,8,0,0,0,1.06-.4,2.73,2.73,0,0,0,1.45-2.48q0-8.79,0-17.59a2.88,2.88,0,0,0-2.71-2.85l-.35,0H3.07Z"/><path d="M24.25,39.5A2.78,2.78,0,0,1,23,38.92,2.39,2.39,0,0,1,22.17,37c0-2.46,0-4.92,0-7.37a2.43,2.43,0,0,1,2.49-2.51H37A2.4,2.4,0,0,1,39.42,29a3.18,3.18,0,0,1,.07.75c0,.88,0,1.75,0,2.62,0,1.52,0,3,0,4.56a2.47,2.47,0,0,1-2,2.53l-.12,0,0,0Z"/><path d="M27,27.65H37a1.91,1.91,0,0,1,2,1.46,2.74,2.74,0,0,1,.06.63c0,.88,0,1.75,0,2.62,0,1.5,0,3,0,4.56a2,2,0,0,1-1.59,2,.76.76,0,0,0-.16,0H24.31a2.25,2.25,0,0,1-1-.45A1.92,1.92,0,0,1,22.67,37v-.29c0-2.36,0-4.72,0-7.08a1.92,1.92,0,0,1,2-2H27m0-1H24.65a2.91,2.91,0,0,0-3,3c0,2.46,0,4.92,0,7.38a2.89,2.89,0,0,0,1,2.25,3.44,3.44,0,0,0,1.52.71H37.48s.05,0,.07,0a3,3,0,0,0,2.46-3c0-2.39,0-4.78,0-7.17a3.62,3.62,0,0,0-.09-.87A2.9,2.9,0,0,0,37,26.66H27Z"/><path d="M3,12.84A2.41,2.41,0,0,1,.53,10.78v-.06l0-.05v-8l.13-.34A4,4,0,0,1,1,1.51a2.25,2.25,0,0,1,2-1H15.4A2.39,2.39,0,0,1,17.83,3c0,2.46,0,4.92,0,7.37a2.42,2.42,0,0,1-2.52,2.52H3Z"/><path d="M9.6,1h5.8A1.9,1.9,0,0,1,17.33,3c0,2.46,0,4.92,0,7.37a1.92,1.92,0,0,1-2,2H3a1.92,1.92,0,0,1-2-1.66.29.29,0,0,0,0-.09V2.71c0-.08.07-.17.1-.26a2.55,2.55,0,0,1,.3-.66A1.73,1.73,0,0,1,2.94,1H9.6m0-1H2.93A2.73,2.73,0,0,0,.57,1.23,7.12,7.12,0,0,0,0,2.52v8.26a.36.36,0,0,1,0,.11,2.91,2.91,0,0,0,3,2.45h12.3a2.92,2.92,0,0,0,3-3c0-2.45,0-4.91,0-7.37A2.9,2.9,0,0,0,15.4,0Z"/><path d="M30.83,22.85l-6.12,0a2.41,2.41,0,0,1-2.54-2.6V3.11A2.43,2.43,0,0,1,24.76.5H37a2.42,2.42,0,0,1,2.49,2.13,3.39,3.39,0,0,1,0,.45V20.24A2.41,2.41,0,0,1,37,22.83Z"/><path d="M31.3,1H37a1.91,1.91,0,0,1,2,1.71,1.89,1.89,0,0,1,0,.36V20.24a1.92,1.92,0,0,1-2,2.09l-6.17,0-6.07,0a1.92,1.92,0,0,1-2-2.1V3.11A1.93,1.93,0,0,1,24.76,1H31.3m0-1H24.76a2.92,2.92,0,0,0-3.09,3.11V20.23a2.92,2.92,0,0,0,3,3.1l6.07,0,6.17,0a2.92,2.92,0,0,0,3-3.09V3.14a3.69,3.69,0,0,0,0-.58A2.9,2.9,0,0,0,37,0Z"/></g></g></svg>