<svg xmlns="http://www.w3.org/2000/svg" viewBox="0 0 20.15 30.08"><defs><style>.cls-1{fill:#4eac8b;}</style></defs><g id="Capa_2" data-name="Capa 2"><g id="Dashboard"><path class="cls-1" d="M12.43,26.53v3.55h-4V26.66A18.48,18.48,0,0,1,0,24.22l2.16-4.67a15.19,15.19,0,0,0,7.7,2.21c2.73,0,3.8-.74,3.8-1.82C13.66,16.38.4,19,.4,10.66c0-3.52,2.63-6.5,8-7.14V0h4V3.46a16.8,16.8,0,0,1,6.76,1.88l-2,4.71a14.27,14.27,0,0,0-6.47-1.73c-2.76,0-3.76.9-3.76,2,0,3.42,13.22.86,13.22,9.12C20.15,22.85,17.62,25.79,12.43,26.53Z"/></g></g></svg>