<svg xmlns="http://www.w3.org/2000/svg" viewBox="0 0 26.29 32.13"><defs><style>.cls-1{fill:#4eac8b;}</style></defs><g id="Layer_2" data-name="Layer 2"><g id="Actividades"><path class="cls-1" d="M26.29,10v18.7l-.07.18a3.52,3.52,0,0,1-1.46,2.37,12.78,12.78,0,0,1-1.82.89H3.36l-.18-.08A4.12,4.12,0,0,1,.85,30.58,5.12,5.12,0,0,1,0,28.69V3.44l.09-.26a4,4,0,0,1,2.67-3C3,.13,3.26.07,3.52,0H16.3A4.76,4.76,0,0,1,17,.48l8.72,8.73A7.68,7.68,0,0,1,26.29,10ZM14.79,2.43l-.17,0H4.12A1.64,1.64,0,0,0,2.4,4.22V28a1.61,1.61,0,0,0,1.78,1.78H22.11A1.62,1.62,0,0,0,23.9,28V11.53l-.15,0c-1.64,0-3.27,0-4.91,0a4.7,4.7,0,0,1-1.29-.21,4,4,0,0,1-2.76-3.85C14.78,5.78,14.79,4.12,14.79,2.43Zm2.4,1.8c0,1.09,0,2.18,0,3.27a1.54,1.54,0,0,0,1.36,1.58c1.17.06,2.35,0,3.49,0Z"/><path class="cls-1" d="M12,21.93v-.46c0-2.18,0-4.36,0-6.55a2.18,2.18,0,0,1,.19-.91,1.11,1.11,0,0,1,1.19-.55,1.16,1.16,0,0,1,1,1,3.57,3.57,0,0,1,0,.56q0,3.26,0,6.51V22l.32-.28c.65-.65,1.29-1.31,2-1.95a1.2,1.2,0,0,1,1.72,0,1.17,1.17,0,0,1,0,1.72c-1.43,1.45-2.88,2.89-4.33,4.32a1.13,1.13,0,0,1-1.65,0q-2.22-2.19-4.4-4.41a1.14,1.14,0,0,1,0-1.65,1.19,1.19,0,0,1,1.69,0c.74.72,1.46,1.47,2.2,2.21Z"/></g></g></svg>