<svg xmlns="http://www.w3.org/2000/svg" xmlns:xlink="http://www.w3.org/1999/xlink" viewBox="0 0 150 150.07"><defs><style>.cls-1{fill:url(#linear-gradient);}.cls-2{fill:url(#linear-gradient-2);}.cls-3{fill:url(#linear-gradient-3);}.cls-4{fill:url(#linear-gradient-4);}.cls-5{fill:url(#linear-gradient-5);}.cls-6{fill:url(#linear-gradient-6);}.cls-7{fill:url(#linear-gradient-7);}.cls-8{fill:url(#linear-gradient-8);}</style><linearGradient id="linear-gradient" x1="117.16" y1="13.31" x2="42.19" y2="143.16" gradientUnits="userSpaceOnUse"><stop offset="0" stop-color="#dee04a"/><stop offset="0.11" stop-color="#dee04a"/><stop offset="0.23" stop-color="#cfdb51"/><stop offset="0.47" stop-color="#a9cd62"/><stop offset="0.79" stop-color="#6cb77e"/><stop offset="0.93" stop-color="#4eac8b"/><stop offset="1" stop-color="#4eac8b"/></linearGradient><linearGradient id="linear-gradient-2" x1="131.49" y1="21.02" x2="58.95" y2="146.66" xlink:href="#linear-gradient"/><linearGradient id="linear-gradient-3" x1="94.78" y1="4.21" x2="22.24" y2="129.86" xlink:href="#linear-gradient"/><linearGradient id="linear-gradient-4" x1="143.31" y1="49.69" x2="83.67" y2="153" xlink:href="#linear-gradient"/><linearGradient id="linear-gradient-5" x1="74.88" y1="5.38" x2="11.64" y2="114.9" xlink:href="#linear-gradient"/><linearGradient id="linear-gradient-6" x1="53.93" y1="11.03" x2="6.61" y2="93" xlink:href="#linear-gradient"/><linearGradient id="linear-gradient-7" x1="33.19" y1="17.63" x2="3.81" y2="68.51" xlink:href="#linear-gradient"/><linearGradient id="linear-gradient-8" x1="153.01" y1="74.46" x2="117.01" y2="136.81" xlink:href="#linear-gradient"/></defs><g id="Layer_2" data-name="Layer 2"><g id="Login"><path class="cls-1" d="M46.84,145.17c-1-.45-2-.87-3-1.33a70.52,70.52,0,0,1-11.09-6.52.63.63,0,0,1-.26-.93,106.53,106.53,0,0,1,8.79-16.33,151,151,0,0,1,14.3-18.35c4.43-4.93,9.08-9.63,13.85-14.22,6.66-6.41,13.35-12.77,19.94-19.25A83.94,83.94,0,0,0,100,55.82a50.53,50.53,0,0,0,6.66-14,52.7,52.7,0,0,0,2.1-11.35A54.65,54.65,0,0,0,105.31,7l-.14-.45a3,3,0,0,1,.53.18c1.34.75,2.69,1.48,4,2.28a2.65,2.65,0,0,1,.89,1,49.48,49.48,0,0,1,4.32,13,43.91,43.91,0,0,1,.36,13,53.16,53.16,0,0,1-5.89,18.07,97.5,97.5,0,0,1-11,16.34C93.91,76,89.09,81.13,84.16,86.17c-3.85,4-7.48,8.1-11,12.38s-7,8.88-10.13,13.54a149.53,149.53,0,0,0-8.49,14,94.51,94.51,0,0,0-6.33,14.48C47.75,142,47.33,143.55,46.84,145.17Z"/><path class="cls-2" d="M118.09,13.28c1.6,1.23,3.24,2.42,4.81,3.68a57.25,57.25,0,0,1,9,9.09,3.62,3.62,0,0,1,.68,1.46,39.16,39.16,0,0,1,.37,12.87,60.12,60.12,0,0,1-5.69,18.47A108.28,108.28,0,0,1,116.7,76.22c-3.81,5.25-8,10.17-12.3,15a187,187,0,0,0-16.81,22,126.6,126.6,0,0,0-11.11,20.84,80.86,80.86,0,0,0-4.72,15.45c-.06.31-.13.57-.57.53l-7.43-.64c.23-1.14.42-2.13.64-3.12a109.68,109.68,0,0,1,8.39-23.23,197.16,197.16,0,0,1,10-18.4c3.82-6.24,7.86-12.34,12.28-18.17,3.28-4.31,6.67-8.53,10-12.78a87.31,87.31,0,0,0,11.46-18.58,55.43,55.43,0,0,0,4.59-16.9,53.34,53.34,0,0,0-.6-14.71A71.54,71.54,0,0,0,118,13.77l-.09-.35Z"/><path class="cls-3" d="M76.3,0c1.46.08,2.9.08,4.32.25,3,.34,6,.76,9,1.14a1.28,1.28,0,0,1,1.13.77,54.1,54.1,0,0,1,5.32,16.23,43.62,43.62,0,0,1-1,17.32A65.37,65.37,0,0,1,87.53,53a117.91,117.91,0,0,1-11.67,16q-6.27,7.33-12.67,14.56c-3.71,4.19-7.54,8.28-11.27,12.45-3.88,4.35-7.61,8.82-11.05,13.52a114.5,114.5,0,0,0-8.81,13.85c-1.64,3.08-3.16,6.23-4.76,9.4a.89.89,0,0,1-.31-.1l-3.27-2.35a.77.77,0,0,1-.26-1A80.63,80.63,0,0,1,27.88,119a104.74,104.74,0,0,1,8.65-14.09c3.09-4.24,6.26-8.44,9.63-12.46,4.17-5,8.56-9.78,12.87-14.64A106.4,106.4,0,0,0,70.19,63a79.61,79.61,0,0,0,9.26-21A59.51,59.51,0,0,0,81.61,29.3a77.55,77.55,0,0,0,.1-8.21A51.85,51.85,0,0,0,76.44.53a1.39,1.39,0,0,1-.12-.28S76.31.17,76.3,0Z"/><path class="cls-4" d="M78.33,149.91c.5-2.33.92-4.68,1.52-7a69.39,69.39,0,0,1,9.58-20.78,115.15,115.15,0,0,1,14.71-17.94q7-7,14.36-13.8a156.68,156.68,0,0,0,13.44-14.19,78.44,78.44,0,0,0,7.92-10.89,43.35,43.35,0,0,0,5.2-13.81c0-.19.09-.38.14-.57l.21-.05c.46,1.19,1,2.36,1.35,3.58.41,1.47.68,3,1,4.48a2.61,2.61,0,0,1-.09,1.27,56.15,56.15,0,0,1-6.34,13.29A105.31,105.31,0,0,1,130.92,87q-4.72,5.28-9.6,10.4a73.46,73.46,0,0,0-12,17,84.73,84.73,0,0,0-7.41,19.88,69.28,69.28,0,0,0-1.7,10.81,1.23,1.23,0,0,1-.85,1.23,42,42,0,0,1-11.18,2.84q-4.29.47-8.58.88c-.31,0-.62,0-.92,0A1.62,1.62,0,0,1,78.33,149.91Z"/><path class="cls-5" d="M62,1.13,66.6.78a.77.77,0,0,1,.82.49,47.29,47.29,0,0,1,4.73,13.86,49,49,0,0,1,.59,11.54,60.67,60.67,0,0,1-4.29,18.42A81.16,81.16,0,0,1,61,59.48,85.38,85.38,0,0,1,50.24,73.07c-4.75,4.84-9.65,9.53-14.47,14.31C32,91.17,28.1,94.91,24.39,98.8c-3.33,3.51-6.5,7.17-9.7,10.81-1.19,1.34-2.25,2.8-3.36,4.21l-.5.61c-1-2-2.05-3.83-2.94-5.75-1.47-3.13-2.84-6.3-4.27-9.44-.2-.42-.16-.62.24-.88q8.34-5.49,16.67-11A164.25,164.25,0,0,0,39.72,72.8c3.09-2.8,6.19-5.59,9.06-8.61a60.23,60.23,0,0,0,13.1-21.52,62.63,62.63,0,0,0,3-12.36,61.77,61.77,0,0,0,.44-12.53A61.9,61.9,0,0,0,62.07,1.56,4,4,0,0,1,62,1.13Z"/><path class="cls-6" d="M35.26,12c1.72-1,3.33-2,5-2.84s3.55-1.66,5.32-2.5a.66.66,0,0,1,.93.23,21.46,21.46,0,0,1,3.64,6.69,45.85,45.85,0,0,1,2.36,11.05,57.12,57.12,0,0,1,.08,10.46,48,48,0,0,1-5.4,19,50.86,50.86,0,0,1-6.29,8.51A99.23,99.23,0,0,1,27,76,97.27,97.27,0,0,1,2.4,90.21c-.41.16-.62.11-.83-.28a7.71,7.71,0,0,1-.88-2.84C.49,85.55.24,84,0,82.49c-.07-.47.08-.7.57-.87a73.69,73.69,0,0,0,23.8-13A49.66,49.66,0,0,0,37.73,52,34.93,34.93,0,0,0,41.2,41.33a45.83,45.83,0,0,0-.28-14.22,44.17,44.17,0,0,0-4.34-12.76C36.18,13.59,35.75,12.85,35.26,12Z"/><path class="cls-7" d="M29.35,15.41c.74,1.59,1.51,3.1,2.15,4.66a26.13,26.13,0,0,1,2,11.25,27.33,27.33,0,0,1-2.25,9.55A43.72,43.72,0,0,1,23,53.61,40.53,40.53,0,0,1,8,63.62c-2.38.95-4.84,1.72-7.27,2.57-.21.07-.42.11-.65.17A76.26,76.26,0,0,1,29.35,15.41Z"/><path class="cls-8" d="M150,72.71a74.35,74.35,0,0,1-9.39,38.7,73.14,73.14,0,0,1-23.44,25.47,3.83,3.83,0,0,1-.06-.43,53.46,53.46,0,0,1,5.66-24.79A57,57,0,0,1,133,97.36,91.53,91.53,0,0,0,142.7,85a130.85,130.85,0,0,0,7-11.75C149.75,73.07,149.87,72.89,150,72.71Z"/></g></g></svg>