<svg xmlns="http://www.w3.org/2000/svg" viewBox="0 0 30.49 30.45"><g id="Capa_2" data-name="Capa 2"><g id="ListadoTaller"><path d="M16.33,27.46A3,3,0,0,0,14.58,27c-2.24,0-4.48,0-6.72,0H4.76c-1.22,0-1.32-.1-1.32-1.27V4.75c0-1.15.1-1.24,1.23-1.24H14.6a2.07,2.07,0,0,0,1.21-.22c.4-.25,1.06-.86,1-1.5a2.46,2.46,0,0,0-1-1.53A1.69,1.69,0,0,0,14.68,0H11.29c-2,0-4.09,0-6.13,0C2.46,0,.8,1,0,3.27L0,27l0,.17a4.75,4.75,0,0,0,3.71,3.27H15.58l.12-.08a2.29,2.29,0,0,0,1.22-1.69A1.44,1.44,0,0,0,16.33,27.46Z"/><path d="M29.78,13.83q-3.51-3.49-7.06-7a2.13,2.13,0,0,0-1.6-.7A1.51,1.51,0,0,0,20,6.78a1.74,1.74,0,0,0,.32,2.56c1.32,1.28,2.62,2.57,3.92,3.87l.3.3H12.18a6.71,6.71,0,0,0-.78,0,1.59,1.59,0,0,0-1.58,1.73,1.58,1.58,0,0,0,1.54,1.64c.29,0,.59,0,.87,0H24.54L23,18.48l-2.69,2.67a1.77,1.77,0,0,0-.22,2.6,1.63,1.63,0,0,0,1.17.51,2.13,2.13,0,0,0,1.45-.66c2.38-2.33,4.77-4.67,7.13-7a1.92,1.92,0,0,0,.67-1.35A2,2,0,0,0,29.78,13.83Z"/></g></g></svg>