<svg xmlns="http://www.w3.org/2000/svg" viewBox="0 0 72.17 72.2"><g id="Capa_2" data-name="Capa 2"><g id="Dashboard"><path d="M22.54,69.85c-.5-.22-1-.42-1.44-.65a33.61,33.61,0,0,1-5.34-3.13c-.18-.13-.22-.22-.12-.45a51.29,51.29,0,0,1,4.23-7.86,73.15,73.15,0,0,1,6.88-8.83c2.13-2.36,4.37-4.63,6.66-6.84C36.61,39,39.83,36,43,32.83a40,40,0,0,0,5.11-6,24.24,24.24,0,0,0,3.21-6.73,25.48,25.48,0,0,0,1-5.47A26.45,26.45,0,0,0,50.67,3.37c0-.05,0-.11-.07-.21l.26.08c.64.36,1.29.71,1.92,1.1a1.28,1.28,0,0,1,.42.5,24,24,0,0,1,2.08,6.27,20.86,20.86,0,0,1,.17,6.26,25.43,25.43,0,0,1-2.83,8.69,46.47,46.47,0,0,1-5.3,7.86c-2.14,2.64-4.46,5.11-6.83,7.54-1.85,1.9-3.6,3.9-5.28,6s-3.34,4.27-4.87,6.51a69.73,69.73,0,0,0-4.09,6.73,46.27,46.27,0,0,0-3,7C23,68.34,22.77,69.07,22.54,69.85Z"/><path d="M56.82,6.39c.77.59,1.55,1.16,2.31,1.77a28,28,0,0,1,4.33,4.37,1.83,1.83,0,0,1,.32.71A18.91,18.91,0,0,1,64,19.43a29,29,0,0,1-2.74,8.89,51.49,51.49,0,0,1-5.07,8.35c-1.84,2.53-3.86,4.89-5.92,7.23a90.36,90.36,0,0,0-8.09,10.59,60.25,60.25,0,0,0-5.34,10A38.43,38.43,0,0,0,34.53,72c0,.15-.07.27-.28.25l-3.57-.3c.11-.55.2-1,.3-1.5a52.58,52.58,0,0,1,4-11.18,92.36,92.36,0,0,1,4.83-8.85,105.57,105.57,0,0,1,5.91-8.75c1.57-2.07,3.21-4.1,4.82-6.15a42,42,0,0,0,5.51-8.94A26.31,26.31,0,0,0,58.3,18.4,25.77,25.77,0,0,0,58,11.33a34.65,34.65,0,0,0-1.22-4.71.94.94,0,0,1,0-.16Z"/><path d="M36.71,0c.7,0,1.39,0,2.08.12,1.44.16,2.88.37,4.32.55a.61.61,0,0,1,.54.37,25.69,25.69,0,0,1,2.56,7.81,20.91,20.91,0,0,1-.48,8.33,31.46,31.46,0,0,1-3.62,8.3,57,57,0,0,1-5.61,7.68q-3,3.53-6.1,7c-1.78,2-3.63,4-5.42,6s-3.66,4.24-5.32,6.5a56.39,56.39,0,0,0-4.24,6.66c-.78,1.48-1.51,3-2.28,4.52a.34.34,0,0,1-.15,0l-1.58-1.14a.35.35,0,0,1-.12-.47,36.85,36.85,0,0,1,2.13-5,51,51,0,0,1,4.15-6.78c1.49-2,3-4.06,4.64-6,2-2.39,4.12-4.7,6.19-7a50,50,0,0,0,5.37-7.09,38.41,38.41,0,0,0,4.46-10.11,29.47,29.47,0,0,0,1-6.11c.06-1.32.11-2.64,0-3.95A24.83,24.83,0,0,0,36.78.26a.42.42,0,0,1-.06-.14S36.71.08,36.71,0Z"/><path d="M37.69,72.13c.24-1.12.44-2.25.73-3.36a33.32,33.32,0,0,1,4.61-10,54.3,54.3,0,0,1,7.08-8.63c2.25-2.26,4.56-4.47,6.9-6.64a74.54,74.54,0,0,0,6.47-6.83,37.09,37.09,0,0,0,3.81-5.24,20.78,20.78,0,0,0,2.5-6.64c0-.09,0-.18.07-.28l.1,0c.22.57.48,1.13.65,1.72s.33,1.43.46,2.16A1.4,1.4,0,0,1,71,29,27.22,27.22,0,0,1,68,35.37a49.57,49.57,0,0,1-5,6.46q-2.27,2.55-4.62,5A35.25,35.25,0,0,0,52.61,55a40.76,40.76,0,0,0-3.56,9.56,32.72,32.72,0,0,0-.82,5.2.59.59,0,0,1-.41.59,20,20,0,0,1-5.38,1.37l-4.13.43c-.15,0-.29,0-.44,0A1.73,1.73,0,0,1,37.69,72.13Z"/><path d="M29.81.54,32,.38a.38.38,0,0,1,.4.23,22.79,22.79,0,0,1,2.27,6.67A24,24,0,0,1,35,12.83a29.05,29.05,0,0,1-2.07,8.86,38.57,38.57,0,0,1-3.59,6.93,41.31,41.31,0,0,1-5.17,6.54c-2.28,2.32-4.64,4.58-7,6.88-1.83,1.82-3.69,3.62-5.47,5.5C10.13,49.22,8.61,51,7.07,52.73c-.57.65-1.08,1.36-1.62,2l-.24.3c-.49-1-1-1.85-1.42-2.77-.7-1.5-1.36-3-2-4.54-.09-.2-.07-.3.12-.42,2.67-1.77,5.35-3.53,8-5.31a78.31,78.31,0,0,0,9.23-7c1.49-1.34,3-2.68,4.36-4.14a28.86,28.86,0,0,0,6.3-10.35,29.7,29.7,0,0,0,1.45-6,29.64,29.64,0,0,0,.21-6A29.3,29.3,0,0,0,29.86.75Z"/><path d="M17,5.75c.82-.47,1.6-1,2.41-1.36s1.71-.8,2.56-1.21a.34.34,0,0,1,.45.11,10.44,10.44,0,0,1,1.75,3.23,21.86,21.86,0,0,1,1.13,5.31,26.52,26.52,0,0,1,0,5A22.89,22.89,0,0,1,22.71,26a24.21,24.21,0,0,1-3,4.1A48.06,48.06,0,0,1,13,36.55,46.75,46.75,0,0,1,1.15,43.4c-.19.08-.29.06-.39-.13A3.72,3.72,0,0,1,.33,41.9C.24,41.16.12,40.42,0,39.69c0-.23,0-.34.28-.42A35.29,35.29,0,0,0,11.73,33a23.83,23.83,0,0,0,6.42-8,16.6,16.6,0,0,0,1.67-5.13,22.41,22.41,0,0,0-.13-6.84A21.2,21.2,0,0,0,17.6,6.9C17.41,6.54,17.2,6.18,17,5.75Z"/><path d="M14.12,7.41c.36.77.73,1.49,1,2.24a12.61,12.61,0,0,1,.95,5.42A13.5,13.5,0,0,1,15,19.67a20.82,20.82,0,0,1-4,6.12,19.65,19.65,0,0,1-7.19,4.82c-1.15.46-2.34.83-3.5,1.23a3,3,0,0,1-.32.09A36.75,36.75,0,0,1,14.12,7.41Z"/><path d="M72.16,35A35.89,35.89,0,0,1,67.64,53.6,35.24,35.24,0,0,1,56.36,65.86a1.14,1.14,0,0,1,0-.21,25.86,25.86,0,0,1,2.72-11.93A27.62,27.62,0,0,1,64,46.84a43.44,43.44,0,0,0,4.69-5.94A61.61,61.61,0,0,0,72,35.25,2.4,2.4,0,0,1,72.16,35Z"/></g></g></svg>