<svg xmlns="http://www.w3.org/2000/svg" viewBox="0 0 72.19 72.25"><g id="Capa_2" data-name="Capa 2"><g id="Capa_1-2" data-name="Capa 1"><g id="Capa_2-2" data-name="Capa 2"><g id="ListadoTaller"><path d="M22.55,69.85c-.5-.22-1-.42-1.44-.65a33.61,33.61,0,0,1-5.34-3.13c-.18-.13-.22-.22-.12-.45a50.82,50.82,0,0,1,4.23-7.86,72.37,72.37,0,0,1,6.88-8.83c2.13-2.36,4.37-4.63,6.66-6.84C36.62,39,39.84,36,43,32.83a40,40,0,0,0,5.11-6,24.24,24.24,0,0,0,3.21-6.73,25.46,25.46,0,0,0,1-5.47A26.51,26.51,0,0,0,50.68,3.37a.32.32,0,0,0-.07-.21l.26.08c.64.36,1.29.71,1.92,1.1a1.27,1.27,0,0,1,.42.5,23.83,23.83,0,0,1,2.08,6.27,20.87,20.87,0,0,1,.17,6.26,25.43,25.43,0,0,1-2.83,8.69,46.28,46.28,0,0,1-5.3,7.86c-2.14,2.64-4.46,5.11-6.83,7.54-1.85,1.9-3.6,3.9-5.28,6S31.88,51.73,30.35,54a69.73,69.73,0,0,0-4.09,6.73,47,47,0,0,0-3,7C23,68.34,22.78,69.07,22.55,69.85Z"/><path d="M56.83,6.39c.77.59,1.55,1.16,2.31,1.77a28,28,0,0,1,4.33,4.37,1.7,1.7,0,0,1,.32.71A18.93,18.93,0,0,1,64,19.43a29,29,0,0,1-2.74,8.89,51.49,51.49,0,0,1-5.07,8.35c-1.84,2.53-3.86,4.89-5.92,7.23a91.2,91.2,0,0,0-8.09,10.59,60.37,60.37,0,0,0-5.34,10A38.6,38.6,0,0,0,34.54,72a.23.23,0,0,1-.28.25L30.69,72l.3-1.5a52.66,52.66,0,0,1,4-11.18,92.36,92.36,0,0,1,4.83-8.85c1.82-3,3.8-5.93,5.91-8.75,1.57-2.07,3.21-4.1,4.82-6.15a42.35,42.35,0,0,0,5.51-8.94,26.2,26.2,0,0,0,2.25-8.18,25.77,25.77,0,0,0-.3-7.07,34.65,34.65,0,0,0-1.22-4.71V6.46Z"/><path d="M36.72,0A12,12,0,0,1,38.8.12c1.44.16,2.88.37,4.32.55a.6.6,0,0,1,.54.37,25.69,25.69,0,0,1,2.56,7.81,20.9,20.9,0,0,1-.48,8.33,31.46,31.46,0,0,1-3.62,8.3,57,57,0,0,1-5.61,7.68q-3,3.53-6.1,7c-1.78,2-3.63,4-5.42,6s-3.66,4.24-5.32,6.5a56.39,56.39,0,0,0-4.24,6.66c-.78,1.48-1.51,3-2.28,4.52H13L11.42,62.7a.35.35,0,0,1-.12-.47,37.36,37.36,0,0,1,2.13-5,50.63,50.63,0,0,1,4.15-6.78c1.49-2,3-4.06,4.64-6,2-2.39,4.12-4.7,6.19-7a50,50,0,0,0,5.37-7.09,38.23,38.23,0,0,0,4.46-10.11,29.41,29.41,0,0,0,1-6.11,30.62,30.62,0,0,0,0-4A24.8,24.8,0,0,0,36.79.26a.35.35,0,0,1-.06-.14A.55.55,0,0,1,36.72,0Z"/><path d="M37.7,72.13c.24-1.12.44-2.25.73-3.36a33.2,33.2,0,0,1,4.61-10,54.75,54.75,0,0,1,7.08-8.63c2.25-2.26,4.56-4.47,6.9-6.64a74.54,74.54,0,0,0,6.47-6.83,36.88,36.88,0,0,0,3.81-5.24,20.78,20.78,0,0,0,2.5-6.64.43.43,0,0,1,.07-.28H70c.22.57.48,1.13.65,1.72s.33,1.43.46,2.16A1.4,1.4,0,0,1,71,29a27.28,27.28,0,0,1-3,6.37,49.72,49.72,0,0,1-5,6.46q-2.26,2.55-4.62,5A35.63,35.63,0,0,0,52.62,55a40.93,40.93,0,0,0-3.56,9.56,32.72,32.72,0,0,0-.82,5.2.59.59,0,0,1-.41.59,20,20,0,0,1-5.38,1.37l-4.13.43h-.44Z"/><path d="M29.82.54,32,.38a.38.38,0,0,1,.4.23,22.79,22.79,0,0,1,2.27,6.67A24,24,0,0,1,35,12.83a29.12,29.12,0,0,1-2.07,8.86,38.24,38.24,0,0,1-3.59,6.93,41.31,41.31,0,0,1-5.17,6.54c-2.28,2.32-4.64,4.58-7,6.88-1.83,1.82-3.69,3.62-5.47,5.5C10.14,49.22,8.62,51,7.08,52.73c-.57.65-1.08,1.36-1.62,2l-.24.3c-.49-1-1-1.85-1.42-2.77-.7-1.5-1.36-3-2-4.54-.09-.2-.07-.3.12-.42,2.67-1.77,5.35-3.53,8-5.31a77.5,77.5,0,0,0,9.23-7c1.49-1.34,3-2.68,4.36-4.14a28.8,28.8,0,0,0,6.3-10.35,29.5,29.5,0,0,0,1.45-6,30.1,30.1,0,0,0,.21-6A29.38,29.38,0,0,0,29.87.75Z"/><path d="M17,5.75c.82-.47,1.6-1,2.41-1.36s1.71-.8,2.56-1.21a.34.34,0,0,1,.45.11,10.44,10.44,0,0,1,1.75,3.23,21.5,21.5,0,0,1,1.13,5.31,26.1,26.1,0,0,1,0,5A22.85,22.85,0,0,1,22.72,26a24.1,24.1,0,0,1-3,4.1A48.15,48.15,0,0,1,13,36.55,46.87,46.87,0,0,1,1.16,43.4c-.19.08-.29.06-.39-.13A3.66,3.66,0,0,1,.34,41.9C.25,41.16.13,40.42,0,39.69c0-.23,0-.34.28-.42A35.37,35.37,0,0,0,11.74,33a23.75,23.75,0,0,0,6.42-8,16.6,16.6,0,0,0,1.67-5.13A22.42,22.42,0,0,0,19.7,13,21.08,21.08,0,0,0,17.61,6.9C17.42,6.54,17.21,6.18,17,5.75Z"/><path d="M14.13,7.41c.36.77.73,1.49,1,2.24a12.58,12.58,0,0,1,.95,5.42A13.54,13.54,0,0,1,15,19.67a20.88,20.88,0,0,1-4,6.12,19.61,19.61,0,0,1-7.19,4.82c-1.15.46-2.34.83-3.5,1.23a1.68,1.68,0,0,1-.32.09A36.78,36.78,0,0,1,14.13,7.41Z"/><path d="M72.17,35a36,36,0,0,1-4.52,18.6A35.26,35.26,0,0,1,56.37,65.86a.74.74,0,0,1,0-.21,25.83,25.83,0,0,1,2.72-11.93A27.88,27.88,0,0,1,64,46.84,44.06,44.06,0,0,0,68.7,40.9,61.33,61.33,0,0,0,72,35.25,2.13,2.13,0,0,1,72.17,35Z"/></g></g></g></g></svg>