<svg xmlns="http://www.w3.org/2000/svg" viewBox="0 0 103.08 79.56"><defs><style>.cls-1{fill:#00b08a;fill-rule:evenodd;}</style></defs><g id="Capa_2" data-name="Capa 2"><g id="Layer_2" data-name="Layer 2"><path class="cls-1" d="M25.24,79.4l47-8.26c-2.52-3-4.86-5.81-7.21-8.62Q56.41,52.31,47.83,42.09a1.64,1.64,0,0,1-.4-1.84q6.2-17,12.35-33.94c.09-.25.22-.47.45-1,14.33,24.84,28.54,49.44,42.85,74.22H25.27Z"/><path class="cls-1" d="M56.26,0a2.75,2.75,0,0,1-.47,1.59Q39.91,35.7,24,69.81A1.67,1.67,0,0,1,22.29,71c-7,0-14,0-21,0-1.48,0-1.51,0-.79-1.29Q13,47.83,25.63,26a4.86,4.86,0,0,1,1.08-1.22L55.58.54C55.75.39,55.93.26,56.26,0Z"/></g></g></svg>