<svg xmlns="http://www.w3.org/2000/svg" viewBox="0 0 104.26 59.64"><defs><style>.cls-1{fill:#00b08a;fill-rule:evenodd;}</style></defs><g id="Capa_2" data-name="Capa 2"><g id="Layer_2" data-name="Layer 2"><path class="cls-1" d="M104,30.09a23.17,23.17,0,0,1-1.42,8.84c-2.52,6.33-9.8,8.61-15,4.72a10.29,10.29,0,0,1-3.73-5.53,26.71,26.71,0,0,1-.13-15.66c1.14-3.76,3.39-6.64,7.55-7.34,5.73-1,10.11,1.75,11.74,7.43A66.62,66.62,0,0,1,104.26,30Zm-6.85.29-.14,0a33.13,33.13,0,0,0-.25-3.47,18.16,18.16,0,0,0-1-3.7,2.56,2.56,0,0,0-2.63-1.63,2.68,2.68,0,0,0-2.42,1.81,9,9,0,0,0-.65,2,29.09,29.09,0,0,0-.06,9.45,8.32,8.32,0,0,0,.7,2.39,2.65,2.65,0,0,0,3,1.56,3,3,0,0,0,2.55-2.49C96.64,34.34,96.84,32.35,97.13,30.38Z"/><path class="cls-1" d="M64.45,37.49A22.86,22.86,0,0,0,67,38.62a10.16,10.16,0,0,0,3,.54A2.32,2.32,0,0,0,72,35.46a12.6,12.6,0,0,0-2-2.06,50.52,50.52,0,0,1-4.56-4.32,8.7,8.7,0,0,1,1.35-12.64c2.62-1.83,5.52-1.78,8.47-1.06,2.17.53,2.16.56,2.16,2.78,0,1.36,0,2.72,0,4.08a1.8,1.8,0,0,1-.06.3c-.38-.16-.73-.35-1.11-.47a27.33,27.33,0,0,0-3.51-1,2.21,2.21,0,0,0-2.41,1.09,2.23,2.23,0,0,0,.36,2.71c.76.86,1.67,1.59,2.52,2.38,1.26,1.16,2.61,2.22,3.74,3.49a8.48,8.48,0,0,1,1.62,9.56c-1.5,3.46-4.44,5-8.12,5.15a11.57,11.57,0,0,1-5.28-1c-.26-.12-.63-.39-.64-.6C64.43,41.78,64.45,39.7,64.45,37.49Z"/><path class="cls-1" d="M16.58,37.9c0,2.26,0,4.38,0,6.5,0,.21-.44.49-.73.58A11.59,11.59,0,0,1,2.94,40.35C.3,36.58-.27,32.32.1,27.87a14.65,14.65,0,0,1,4.38-9.66c3.27-3.16,7.19-3.83,11.49-2.86a.93.93,0,0,1,.58.68c.05,2.06,0,4.13,0,6.28-.93-.16-1.77-.32-2.61-.44a5.08,5.08,0,0,0-5.56,2.85A11.16,11.16,0,0,0,8.32,35.5C9.61,38,12.05,39,15,38.31,15.46,38.21,15.92,38.07,16.58,37.9Z"/><path class="cls-1" d="M47,37.92c0,2.21,0,4.31,0,6.4,0,.23-.44.57-.74.66-5.15,1.53-10.43-.65-13.41-5.45-3.17-5.12-3.69-15.38,1.64-20.87,3.35-3.44,7.35-4.33,11.9-3.33.24.06.61.37.62.56,0,2.13,0,4.25,0,6.4-1.05-.16-2-.35-3-.45a4.88,4.88,0,0,0-4.58,2,10.11,10.11,0,0,0-1.88,7.61,12.44,12.44,0,0,0,.74,3.19,5.75,5.75,0,0,0,7.1,3.7C45.86,38.21,46.35,38.07,47,37.92Z"/><path class="cls-1" d="M51.47,15.78H58v28.9h-6.5Z"/><path class="cls-1" d="M23.34,0h1.2c0,.31.05.59.05.88q0,9.24,0,18.49a2.21,2.21,0,0,1-.06.86.87.87,0,0,1-.62.46c-.15,0-.4-.31-.48-.53a2.8,2.8,0,0,1,0-.87L23.3,1C23.3.7,23.32.42,23.34,0Z"/><path class="cls-1" d="M24.59,59.64H23.37a7.51,7.51,0,0,1-.07-.78L23.36,40c0-.13,0-.28,0-.38a6.5,6.5,0,0,1,.44-.63c.24.21.65.4.68.64a15.12,15.12,0,0,1,.06,2.13l0,17Z"/></g></g></svg>