<svg xmlns="http://www.w3.org/2000/svg" viewBox="0 0 102.25 67.4"><defs><style>.cls-1{fill:#00b08a;fill-rule:evenodd;}</style></defs><g id="Capa_2" data-name="Capa 2"><g id="Layer_2" data-name="Layer 2"><path class="cls-1" d="M.08,37c1.29-7,5.11-12.55,10.33-17.24a1.2,1.2,0,0,1,.38-.12A3.36,3.36,0,0,1,10.07,23C5.43,28.89,3,35.45,4.15,43a16.86,16.86,0,0,0,8.1,11.84A35.82,35.82,0,0,0,28.17,60,98,98,0,0,0,83.73,49.83c1.08-.55,1.42-.42,1.34.79,0,.74,0,1.49,0,2.24,0,4.19,0,4.24-3.91,6a103.77,103.77,0,0,1-37.7,8.54c-1.51.06-6.28,0-7.45,0a56.2,56.2,0,0,1-19.82-3.85C7.57,60,1.29,54.33,0,44.48,0,44.19,0,37.32.08,37Z"/><path class="cls-1" d="M102.14,27.29a24.19,24.19,0,0,1-13.35,17c-1.75.9-1.65.85-1.81-1.18a5.54,5.54,0,0,1,2.56-5.52c6.95-5.18,9.38-13.3,6.51-20.38-2.32-5.7-6.94-8.84-12.42-10.92-6.82-2.6-13.95-3.21-21.17-2.92a97.46,97.46,0,0,0-39.08,9.9c-.3.15-.62.28-1,.43-.59-1.2-.19-1.87.88-2.47A87.33,87.33,0,0,1,59.32.06c1-.09,12.89-.07,13.73,0A48,48,0,0,1,84.63,2.37c8.78,3,15.86,7.74,17.61,17.75C102.28,20.32,102.22,26.93,102.14,27.29Z"/><path class="cls-1" d="M68.35,36.26c-1.78,0-3.56.08-5.33,0-1.35-.08-1.42.54-1.17,1.55.74,2.9,4.69,4.11,7.75,2.42.6-.33,1.05-1.42,1.83-.9a15.73,15.73,0,0,1,2.62,2.48c.4.43-.1.72-.38,1-3.32,2.87-7.17,3.23-11.16,2-3.61-1.11-5.34-3.93-5.91-7.55a14.61,14.61,0,0,1,.28-6.31,9.27,9.27,0,0,1,10.09-7c4.19.32,7.38,3.7,7.92,8.42.46,4,.46,4-3.44,4ZM65.7,32.67c1,0,2.06,0,3.08,0,.59,0,1-.1.91-.86a3.81,3.81,0,0,0-3.55-3.54,4,4,0,0,0-4.36,3.28c-.12.85.19,1.15,1,1.13C63.75,32.65,64.73,32.67,65.7,32.67Z"/><path class="cls-1" d="M24.73,34.48c0-2.93,0-5.86,0-8.79,0-1,.18-1.55,1.41-1.51,3.21.09,6.43,0,9.65,0,3.75.07,6,2.29,6,6.07.07,4.47,0,9,0,13.44,0,1.1-.42,1.32-1.41,1.34-3.85.09-3.85.12-3.85-3.71,0-3.44,0-6.89,0-10.34,0-1.9-.56-2.46-2.43-2.58-4.11-.26-4.11-.26-4.11,3.78,0,3.79,0,7.58,0,11.37,0,1.14-.36,1.46-1.46,1.48-3.89.07-3.89.11-3.89-3.7Z"/><path class="cls-1" d="M45.82,29.73c0-3.22,0-6.43,0-9.65,0-1.21.4-1.55,1.58-1.56,3.72,0,3.83-.07,3.68,3.51-.08,1.86.52,2.43,2.27,2.21.54-.07,1.47-.39,1.6.45.19,1.16.47,2.48-.18,3.51-.37.58-1.41.27-2.13.21-1.23-.09-1.57.39-1.54,1.57q.12,4.12,0,8.27c0,1.69.68,2.52,2.34,2.4,2.59-.18,1.37,1.75,1.6,2.84.3,1.42-.58,1.6-1.71,1.53a12.79,12.79,0,0,1-3.75-.38,5.21,5.21,0,0,1-3.67-5.1c-.08-3.27,0-6.54,0-9.81Z"/><path class="cls-1" d="M83.46,30.06c0,4.41-.06,8.83,0,13.24,0,1.54-.58,1.58-1.74,1.22-2.4-.75-3.64-2.54-3.67-5.58,0-5.44,0-10.89,0-16.34,0-2,0-3.9,0-5.84,0-.89.29-1.17,1.18-1.22,4.22-.22,4.22-.25,4.22,3.85Z"/><path class="cls-1" d="M20.08,34.82c0,3-.08,6,0,9,.05,1.52-.51,1.58-1.7,1.19a4.6,4.6,0,0,1-3.55-4.18,113.38,113.38,0,0,1,0-15.64c.13-2,2.55-.53,3.88-.9.8-.23,1.39,0,1.37,1.12C20,28.51,20.08,31.67,20.08,34.82Z"/><path class="cls-1" d="M17.36,16.28c2.71,0,2.73,0,2.7,2.55,0,2.81.46,2.49-2.78,2.51-2.91,0-2.58.24-2.57-2.77C14.72,15.83,14.45,16.33,17.36,16.28Z"/><path class="cls-1" d="M87.64,16.24l0,0a1.48,1.48,0,0,1,2.13.11c.61.81-.13,1.87,0,2.83-.73.07-1.5.62-2.18-.14l0,0"/></g></g></svg>