<svg xmlns="http://www.w3.org/2000/svg" viewBox="0 0 104.35 29.22"><defs><style>.cls-1{fill:#00b08a;fill-rule:evenodd;}</style></defs><g id="Capa_2" data-name="Capa 2"><g id="Layer_2" data-name="Layer 2"><path class="cls-1" d="M97.91,0h.18l6.26,3.65V14.09a8,8,0,0,0-.1.84c0,2.06-.07,4.11,0,6.17a1.14,1.14,0,0,1-.66,1.15c-3.54,2-7.06,4.07-10.59,6.12-.45.26-.86.56-1.3.85h-.17a6.48,6.48,0,0,0-.67-.5c-1.58-.92-3.14-1.86-4.74-2.74a1.2,1.2,0,0,1-.71-1.22c0-5.5,0-11,0-16.5a1.43,1.43,0,0,1,.93-1.53,19.79,19.79,0,0,0,1.73-1Zm-6.1,21.78c1.88-1.09,3.66-2.14,5.47-3.16A1.14,1.14,0,0,0,98,17.47c0-3,0-6.07,0-9.11,0-.28,0-.55-.05-1-2,1.17-3.94,2.26-5.84,3.41a1.12,1.12,0,0,0-.29.82c0,3.12,0,6.25,0,9.37C91.74,21.22,91.78,21.44,91.81,21.78Z"/><path class="cls-1" d="M27.48,29.22C25.65,28.13,23.83,27,22,26a1.16,1.16,0,0,1-.69-1.15q.08-8.43.07-16.85A1.07,1.07,0,0,1,22,6.88q5.5-3.15,11-6.34c.27-.16.51-.36.76-.54h.35a5.67,5.67,0,0,0,.68.5c1.6.93,3.2,1.86,4.81,2.76a1,1,0,0,1,.62,1c0,3.22,0,6.43,0,9.65a1,1,0,0,1-.59,1c-1.67.93-3.31,1.91-5,2.87-.2.12-.39.27-.67.47l6.17,3.59-2.1,1.23-10.4,6.11Zm.15-7.31L34,18.25,27.7,14.62c.35-.23.58-.39.82-.53,1.6-.93,3.21-1.85,4.8-2.8.24-.14.56-.42.57-.65.07-1.05,0-2.11,0-3.33-2.1,1.22-4.05,2.33-6,3.49a1,1,0,0,0-.3.72c0,1.16,0,2.31,0,3.47Z"/><path class="cls-1" d="M70.26,29.22C68.18,28,66.1,26.74,64,25.48l7.39-14.92a2,2,0,0,0-.07-.26c-.88,1-1.55.32-2.24-.07-1.67-1-3.34-1.93-5.11-3l5.36-3.09L75.69.51A6.45,6.45,0,0,0,76.35,0h.35l6.17,3.68-7.41,15a2,2,0,0,1,.11.2c.76-.83,1.4-.43,2.1,0,1.41.86,2.86,1.65,4.29,2.47l.91.56-1,.56L71.1,28.72c-.23.14-.44.33-.67.5Z"/><path class="cls-1" d="M55.48,0c1.6,1,3.16,2,4.82,2.86a2.17,2.17,0,0,1,1.32,2.28c-.08,5.24,0,10.48-.06,15.73v.91c-.3-.15-.53-.24-.73-.36-1.61-.93-3.19-1.88-4.82-2.77a1.2,1.2,0,0,1-.71-1.22c0-3,0-6,0-8.95V7.43c-.3.13-.51.19-.7.3-1.68,1-3.37,1.92-5,2.92a1.22,1.22,0,0,0-.54.84c0,5.91,0,11.82,0,17.73h-.17C47,28.12,45.23,27,43.38,26a1.27,1.27,0,0,1-.77-1.27c0-5.53,0-11,0-16.58a1.2,1.2,0,0,1,.7-1.22C47,4.79,50.69,2.66,54.37.54c.27-.16.51-.36.76-.54Z"/><path class="cls-1" d="M.17,0a49.82,49.82,0,0,0,4.4,2.56A2.83,2.83,0,0,1,6.42,5.67c-.12,5,0,10.09,0,15.13v1.12c.38-.2.65-.33.91-.48,1.63-.93,3.26-1.88,4.91-2.78a1.14,1.14,0,0,1,.93-.09c1.9,1,3.77,2.15,5.78,3.31l-.87.54L7.22,28.69c-.27.16-.52.35-.79.53H6.26L0,25.57Q0,13.14,0,.69A3.44,3.44,0,0,1,.17,0Z"/><path class="cls-1" d="M12.76,7.3c2.1,1.2,4,2.28,5.9,3.39a.81.81,0,0,1,.34.61c0,2.26,0,4.51,0,7-.95-.53-1.74-1-2.53-1.44-1.08-.62-2.16-1.23-3.22-1.88-.22-.13-.49-.4-.49-.61C12.75,12,12.76,9.77,12.76,7.3Z"/><path class="cls-1" d="M12.76,0c2.09,1.21,4,2.31,5.88,3.43a.84.84,0,0,1,.36.6c0,1,0,2,0,3.14-.3-.12-.5-.19-.69-.29C16.68,6,15,5,13.37,4.08A1.06,1.06,0,0,1,12.74,3C12.78,2.07,12.76,1.15,12.76,0Z"/></g></g></svg>