<svg xmlns="http://www.w3.org/2000/svg" viewBox="0 0 103.5 50.74"><defs><style>.cls-1{fill:#00b08a;fill-rule:evenodd;}</style></defs><g id="Capa_2" data-name="Capa 2"><g id="Layer_2" data-name="Layer 2"><path class="cls-1" d="M11.19,8.74c.47-2.21,1-4.28,1.33-6.38.24-1.68,1-2.16,2.66-2.1,3.05.12,3.06,0,3.06,3v8.81c0,3.11,0,3.11-3.31,2.67V6.86l-.46-.08c-.52,2.15-1.08,4.29-1.55,6.45C12.68,14.33,12.32,15,11,15s-1.74-.57-2-1.7A26.22,26.22,0,0,0,7.2,7.49c0,1.59,0,3.19,0,4.78,0,2.94-.12,3.05-3.51,2.37V3.55C3.7.48,5.33-.7,8.26.41c.46.17.82,1,1,1.53.59,2.18,1.06,4.4,1.58,6.6C10.82,8.58,10.92,8.6,11.19,8.74Z"/><path class="cls-1" d="M7.29,45.4c0,1,0,2,0,2.88.07,1.27,0,2.12-1.73,2.14s-1.91-.82-1.88-2.19c.05-3.6.06-7.2,0-10.79,0-1.34.33-2,1.78-1.87,1.66.12,3.34,0,5,.1,2.17.16,4.1.85,4.86,3.17s.07,3.86-2.38,5.82l1.44,2.69c.46.86.92,1.72,1.41,2.62-3.2.9-3.57.66-5.09-1.91C10,46.87,10,44.64,7.29,45.4Zm0-2.81a32.92,32.92,0,0,0,4.27-1.28c.27-.12.29-1.78.09-1.86a40,40,0,0,0-4.36-1.18Z"/><path class="cls-1" d="M52.56,39.64c3.42-.6,3.52-.53,4.08,2.47a8.68,8.68,0,0,0,1,3c.31-1.45.69-2.89.9-4.35s1.06-1.45,2.15-1.46,1.92.12,2.08,1.51A13.22,13.22,0,0,0,64,45.11c.27-1.11.55-2.22.8-3.33.62-2.69.73-2.76,3.94-2.1-1,3.31-1.86,6.64-3,9.86-.18.51-1.66.75-2.54.74a2.06,2.06,0,0,1-1.4-1.21,24.72,24.72,0,0,0-1.45-4,24.75,24.75,0,0,1-1,4,2.76,2.76,0,0,1-1.81,1.23c-.91.18-2,.35-2.36-1.1C54.37,46.06,53.46,42.93,52.56,39.64Z"/><path class="cls-1" d="M81.61,32.7c2.14-.16,3.48-.67,4.54.88.27.4,1.53.42,2.17.17.45-.17.62-1.09.92-1.7-.44-.17-.57-.27-.66-.24-2,.52-4,.62-5.5-1.21a6.15,6.15,0,0,1-.73-6.08,3.87,3.87,0,0,1,3.7-2.9c2.06,0,4.13.26,6.35.42,0,3.79.07,7.57-.06,11.34A3.48,3.48,0,0,1,91,35.47c-1.71,1.35-5.69,1.4-7.4,0A13.31,13.31,0,0,1,81.61,32.7Zm3.88-5.83c0,1.37.27,2.6,1.9,2.54s1.71-1.41,1.7-2.64-.15-2.54-1.86-2.46S85.55,25.72,85.49,26.87Z"/><path class="cls-1" d="M31.07,32.39V17.81c1.22.31,2.69.25,3.16.9s.24,2.16.3,3.45c.63-.21,1.1-.39,1.58-.52,2.65-.73,4.57.57,4.71,3.3.11,2.13,0,4.27,0,6.4,0,1.31-.78,1.33-1.71,1.31s-1.78.08-1.75-1.27a29.57,29.57,0,0,0-.06-4.8c-.09-.74-.74-1.9-1.31-2-1.33-.26-1.51,1-1.56,2s0,2.27,0,3.4C34.42,32.92,34.37,33,31.07,32.39Z"/><path class="cls-1" d="M19.62,28H12.35c.58,2.33,2.32,3.14,3.74,1.67s2.23-.87,3.34,0a5.69,5.69,0,0,1-7.26,3c-2.68-.88-4-3.83-3.27-7.08C9.63,22.55,12,21,15.4,21.5,18.2,21.9,19.91,24.38,19.62,28Zm-7.2-3,.23.53H16c.08-.19.16-.39.25-.58-.68-.33-1.34-.91-2-.92S13,24.68,12.42,25Z"/><path class="cls-1" d="M19.11,46.28c.63.54,1.27,1.54,1.88,1.53a12.61,12.61,0,0,0,3.36-1c0-.2,0-.4-.05-.6l2.2,1.14a5.8,5.8,0,0,1-7.21,3.11c-2.74-.86-4.15-3.73-3.45-7a5.31,5.31,0,0,1,6-4.36c3.11.27,4.81,2.41,4.88,6.41H19.49C19.36,45.75,19.24,46,19.11,46.28Zm3.86-3,.27-.69c-.7-.32-1.4-.9-2.08-.87s-1.25.7-1.88,1.1c.1.15.19.31.28.46Z"/><path class="cls-1" d="M50.61,46.21l2,1.13a5.87,5.87,0,0,1-7.44,3c-2.68-1-4-3.93-3.16-7.16a5.32,5.32,0,0,1,6.38-4.06c2.89.44,4.55,2.76,4.35,6.39H45.55l-.33.58c.58.59,1.17,1.67,1.74,1.66a13.73,13.73,0,0,0,3.54-1C50.54,46.58,50.57,46.4,50.61,46.21Zm-5.2-3.41.21.47H49.2l.21-.56c-.67-.35-1.35-1-2-1S46.07,42.42,45.41,42.8Z"/><path class="cls-1" d="M69.75,27.23c0-3.58,2.13-5.78,5.67-5.8,3.72,0,6,2.15,6,5.7s-2.25,5.83-5.92,5.8S69.77,30.79,69.75,27.23Zm8.19.12c0-2.1-1-3.26-2.51-3.12-1.77.17-2.23,1.45-2.24,3,0,1.86,1,3,2.51,2.9C77.53,30,77.86,28.63,77.94,27.35Z"/><path class="cls-1" d="M45.77,32.52H42.25c0-3.36,0-6.61,0-9.85,0-.33.75-.86,1.2-.91,1.73-.18,3.49-.25,5.23-.27,2,0,3.18.93,3.31,3,.14,2.32,0,4.67.07,7,0,1.38-1,1.16-1.83,1.19s-1.74,0-1.7-1.33a37.59,37.59,0,0,0-.06-5.2c-.07-.64-.86-1.2-1.33-1.8-.47.61-1.3,1.18-1.36,1.82C45.66,28.19,45.77,30.25,45.77,32.52Z"/><path class="cls-1" d="M58.74,21.43c3.72,0,5.91,2.2,5.88,5.83s-2.31,5.74-6,5.67-5.7-2.25-5.67-5.82S55.18,21.41,58.74,21.43Zm2.37,5.66c0-1.55-.55-2.76-2.33-2.87-1.47-.08-2.47,1.19-2.39,3,.06,1.51.52,2.78,2.34,2.86C60.24,30.16,61.14,29,61.11,27.09Z"/><path class="cls-1" d="M93.36,33.71l3.1-.47c-1.13-3.78-2.22-7.43-3.3-11.08,2.8-1,3.43-.72,4,2,.25,1.11.5,2.21.77,3.31,0,.11.14.2.45.58.33-1.38.62-2.56.89-3.73.65-2.91.87-3,4.18-2.24-1.4,4.17-2.71,8.34-4.22,12.45-.59,1.6-3.88,2.64-5.19,1.66C93.56,35.79,93.6,34.63,93.36,33.71Z"/><path class="cls-1" d="M3.74,32.31V21.24L.37,21c-.71-2.79-.58-3,2.09-3s5.19,0,7.78.05a1.54,1.54,0,0,1,.53.19c0,2.49,0,2.49-3.57,3.11V30C7.2,33,7,33.11,3.74,32.31Z"/><path class="cls-1" d="M31.22,3.62V14.81H27.84V3.68a12.38,12.38,0,0,0-1.9-.19c-1.3.1-1.93-.26-1.91-1.75S25,.3,26,.3c2.33,0,4.66,0,7,0,1.08,0,1.93,0,2,1.52s-.8,1.74-2,1.68A16.4,16.4,0,0,0,31.22,3.62Z"/><path class="cls-1" d="M26.37,39.72c3.2-.75,3.46-.61,4.17,2.06.27,1,.55,2,.83,3.08a4.32,4.32,0,0,0,.4.61c.37-1.4.69-2.59,1-3.78.69-2.65.83-2.72,4-1.95C35.69,43,34.69,46.29,33.5,49.5c-.17.46-1.26.81-1.92.8s-1.77-.34-1.94-.81C28.44,46.28,27.44,43,26.37,39.72Z"/><path class="cls-1" d="M28.21,28.68l2.22,1.18a5.21,5.21,0,0,1-6.06,3,5.34,5.34,0,0,1-4.19-5.19,5.63,5.63,0,0,1,3.57-5.88c2.58-.88,4.77-.15,6.59,2.38L28.2,25.52c-1.19-.82-2.3-2.28-3.75-.59a3.81,3.81,0,0,0,.16,4.63C26.09,31,27.12,29.82,28.21,28.68Z"/><path class="cls-1" d="M68.93,25.32c0,2,0,4,0,6,0,1.27-.71,1.38-1.67,1.36s-1.89.11-1.87-1.36q.06-6,0-12c0-1.26.7-1.38,1.67-1.36S69,17.9,69,19.34C68.9,21.33,68.93,23.33,68.93,25.32Z"/><path class="cls-1" d="M23.39,7.7c0,1.93-.05,3.86,0,5.79,0,1.18-.5,1.5-1.56,1.46S20,15,20,13.55q.07-5.9,0-11.79C20,.39,20.75.32,21.79.28c1.21,0,1.67.4,1.62,1.62C23.34,3.83,23.39,5.77,23.39,7.7Z"/><path class="cls-1" d="M37.42,44.73c0-1.26.06-2.53,0-3.79s.51-1.58,1.66-1.59,1.86.24,1.81,1.65c-.08,2.59-.07,5.19,0,7.79,0,1.24-.47,1.61-1.66,1.6s-1.9-.26-1.81-1.66S37.42,46.07,37.42,44.73Z"/><path class="cls-1" d="M40.36,37.88a11.71,11.71,0,0,1-2.83-1A2.23,2.23,0,0,1,37.71,35c.77-.35,2-.58,2.56-.17s.5,1.65.71,2.52Z"/></g></g></svg>