<svg xmlns="http://www.w3.org/2000/svg" viewBox="0 0 101.89 52.7"><defs><style>.cls-1{fill:#00b08a;fill-rule:evenodd;}</style></defs><g id="Capa_2" data-name="Capa 2"><g id="Layer_2" data-name="Layer 2"><path class="cls-1" d="M11.15,0c0,.22,0,.45,0,.67V52c0,.23,0,.45,0,.68H0Q0,26.53,0,.37C0,.07.07,0,.37,0Z"/><path class="cls-1" d="M36.22,52.7c0-.23,0-.45,0-.68V.68c0-.22,0-.45,0-.67H47.29V52.7Z"/><path class="cls-1" d="M29.22,0q0,11.75,0,23.51V35.21c0,.66,0,.68-.67.68H18.8c-.69,0-.72,0-.72-.72V.72c0-.24,0-.47,0-.71Z"/><path class="cls-1" d="M72.67,52.7q0-11.75,0-23.47V17.49c0-.65,0-.68.67-.68h9.74c.69,0,.72,0,.72.72V52c0,.24,0,.48,0,.72Z"/><path class="cls-1" d="M54.29,52.7c0-.14,0-.27,0-.4V17.45c0-.63,0-.63.63-.63h9.91c.56,0,.56,0,.56.55V52.26c0,.15,0,.29,0,.44Z"/><path class="cls-1" d="M101.88,10.51H73.52c-.84,0-.84,0-.84-.83q0-4.83,0-9.66h28.86c.29,0,.36.07.36.37Q101.88,5.44,101.88,10.51Z"/><path class="cls-1" d="M65.35,0c0,3,0,6.07,0,9.11,0,.32,0,.64,0,1a.37.37,0,0,1-.41.42H55c-.72,0-.72,0-.72-.7V0Z"/></g></g></svg>