<svg xmlns="http://www.w3.org/2000/svg" viewBox="0 0 958.49 255.62"><defs><style>.cls-1{fill:#00B96A;}</style></defs><g id="Capa_2" data-name="Capa 2"><g id="Layer_1" data-name="Layer 1"><g id="kYvPo6.tif"><path class="cls-1" d="M366.52,255.62c-4.16-4-3.85-7.84-.43-12.5,10.9-14.88,21.32-30.11,32.16-45,2.43-3.33,2.91-6.13,1.54-10.06-12.23-35.29-24.25-70.66-36.32-106A34,34,0,0,1,362,77.28c-.88-4.75,1.19-7.82,5.94-7.89q18-.28,36.07,0c5.68.11,8.22,4.1,9.7,9.09q9.11,30.69,18.34,61.35c.52,1.72,1.11,3.42,1.81,5.59,2.12-1.18,2.94-3,4-4.6,14.63-21.5,29.35-42.94,43.78-64.57C485,71.33,489,69,495,69.18c10.17.29,20.35.09,30.52.07,3.23,0,6.36,0,8.09,3.48,1.6,3.17,0,5.64-1.68,8.13Q473.43,165.22,415,249.61a26.92,26.92,0,0,1-6.28,6Z"/><path class="cls-1" d="M87.31.13c14.43.4,31.47-1,48.38,1.86,25.4,4.29,40.9,18.6,43.91,41.52,1.83,13.92-.46,27.59-4.59,40.91-10.53,33.92-36.32,52.62-74.12,53.73-9.43.27-18.87.08-28.3.14-8,.05-11.43,3-12.67,10.83q-3.8,24-7.66,48c-1.13,7-4.43,10-11.52,10.12q-16.65.23-33.3,0c-5.83-.07-8.15-2.81-7.25-8.49q9-57.3,18.13-114.59L29.9,11.05C31.14,3.26,34.53.21,42.58.16,56.64.06,70.69.13,87.31.13ZM85,96.85l7.82-.5q31.68-2.11,31.41-33.54c-.09-11-5.59-17.61-16.31-19.82-7.7-1.59-15.48-1.14-23.24-1.19-6.8,0-8.13,1.32-9.19,8.25-1.65,10.75-3.3,21.49-5.15,32.21-2.53,14.67-2.61,14.65,12.5,14.59Z"/><path class="cls-1" d="M621.75,138.28c-7.85,0-13.21-.09-18.58,0-6.63.14-10.18,3.19-11.26,9.81q-4,24.56-7.76,49.13c-1.29,8.38-3,10-11.44,10q-15.54,0-31.08,0c-8.9,0-10.7-2.3-9.29-11.12q6.57-40.92,13-81.86,8.22-51.85,16.48-103.7C563,3.2,566.34.12,573.73.18,601.84.42,630-.71,658.08.81a78.7,78.7,0,0,1,16.37,2.76c26.33,7.21,39,25,37.29,53.75-1.17,19.6-6.25,38.2-18.85,54s-29.75,23.06-49.25,25.88A143.1,143.1,0,0,1,621.75,138.28Zm-4.82-41.4c1.51-.11,4.45-.32,7.4-.51C645.52,95,655.25,85,656,63.76c.43-11.3-5.36-18.56-16.43-20.78-8.42-1.7-16.93-1.07-25.41-1.17-4.05,0-6,2.42-6.57,6.12C605.26,63,603,78.12,600.48,93.17c-.56,3.31.62,3.81,3.36,3.74C607.72,96.8,611.6,96.88,616.93,96.88Z"/><path class="cls-1" d="M276.4,192.35c-10.4,8.14-21.55,14.5-34.83,17.07-42.51,8.21-75-19.28-72.44-62.48,1.84-30.84,15.61-55.41,42.94-71.19,19.24-11.1,40-12.24,61.18-7,8.44,2.09,15.58,6.58,20.34,14.18,1.73-1.17,1.53-2.74,1.73-4.1,1.33-8.92,2-9.58,10.83-9.59,10,0,20-.07,30,0,6.46.06,8.59,2.77,7.6,9.06Q334.48,137,325.27,195.69c-1.37,8.69-4.51,11.49-13.18,11.52q-13.32.06-26.64,0c-8.29,0-9.76-1.68-8.89-9.91.16-1.46.27-2.92.41-4.39l.27-1.2Zm-28.71-19.72c19.27,0,34.68-11.68,39.55-30,5.35-20.13-5.55-37.06-24.86-38.62-22-1.78-39.72,11.7-43.87,33.45C214.55,158.19,226.49,172.6,247.69,172.63Z"/><path class="cls-1" d="M826,83.49c3.61-15,.2-14.21,18.18-14.22,7.77,0,15.54,0,23.3,0,6.94.07,9,2.43,8,9.17q-9.09,58.4-18.29,116.78c-1.54,9.74-4.34,11.95-14.44,12q-12.75,0-25.52,0c-8.12,0-9.75-1.9-8.72-9.92.18-1.45.25-2.91.37-4.35-2.09-1-2.76.83-3.75,1.62-20,16-42.63,19.93-66.81,12.92-20.7-6-31.71-21.65-35.9-41.9-7.9-38.17,14.71-86.17,61.06-97.5a83.74,83.74,0,0,1,41.69.7C814.23,71.16,818.74,74.52,826,83.49Zm-46.55,89.14c19.73,0,35.27-12.09,39.84-31.09,4.72-19.66-6.21-36-25.08-37.58-21.63-1.76-39,11.11-43.69,32.33S757.86,172.59,779.43,172.63Z"/><path class="cls-1" d="M935.24.12c5.18,0,10.37-.12,15.54,0,6,.18,8.44,3,7.52,8.92q-6.62,42.3-13.35,84.6-8.15,51.3-16.33,102.6c-1.28,8-4.39,10.91-12.45,11-9.07.09-18.14.11-27.2,0-6.43-.08-8.53-2.79-7.54-9.11Q896.19,104,910.93,9.8c1.34-8.59,2.62-9.67,11.55-9.68Z"/><path class="cls-1" d="M276.4,192.35l.84-.63-.27,1.2Z"/></g></g></g></svg>