<svg xmlns="http://www.w3.org/2000/svg" viewBox="0 0 103.08 103.11"><defs><style>.cls-1{fill:#00b08a;fill-rule:evenodd;}</style></defs><g id="Capa_2" data-name="Capa 2"><g id="Layer_2" data-name="Layer 2"><path class="cls-1" d="M0,51.53a51.54,51.54,0,1,1,51.37,51.58A51.56,51.56,0,0,1,0,51.53ZM52.06,2.29C25.36,1.85,2.8,23.6,2.3,50.26a49.25,49.25,0,1,0,49.76-48Z"/><path class="cls-1" d="M37.71,83.46c.1-1.16.22-2.33.3-3.49.33-4.48.68-9,1-13.46a1.35,1.35,0,0,0-.74-1.07C31.71,63.59,26.48,57.34,26.54,49c0-5,1.11-9.52,4.81-13.13a14.23,14.23,0,0,1,9.82-4.33c7.24-.14,14.49-.27,21.72,0,8.13.29,14,6,15,14.1.72,6.23-.5,12-5,16.67a15,15,0,0,1-11.2,4.88c-3.27,0-6.54,0-9.8,0a2.19,2.19,0,0,0-2,1Q44.38,75.4,38.77,82.61c-.24.31-.49.61-.74.92ZM53.23,59c2.84,0,5.46.22,8,0a9.7,9.7,0,0,0,1.28-19,32.41,32.41,0,0,0-4.86-.38c-.87-.08-1.23.24-1.37,1.13-.49,3.27-1.08,6.52-1.63,9.77C54.2,53.2,53.72,56,53.23,59ZM39.53,47.13c-1.33,0-2.08.64-2,1.69a1.62,1.62,0,0,0,2,1.56,7.52,7.52,0,0,1,1.3-.22,4.28,4.28,0,0,1,1.76.33,2.56,2.56,0,0,0,3.26-.23,2.19,2.19,0,0,0,.05-2.89A2.45,2.45,0,0,0,42.62,47a4.2,4.2,0,0,1-1.69.36A6.58,6.58,0,0,1,39.53,47.13Z"/></g></g></svg>