<svg xmlns="http://www.w3.org/2000/svg" xmlns:xlink="http://www.w3.org/1999/xlink" viewBox="0 0 156.95 156.95"><defs><style>.cls-1{fill:none;}.cls-2{clip-path:url(#clip-path);}.cls-3{fill:url(#linear-gradient);}.cls-4{clip-path:url(#clip-path-2);}.cls-5{fill:url(#linear-gradient-2);}</style><clipPath id="clip-path" transform="translate(24.5 53.97)"><path class="cls-1" d="M19.92,38.62a2.26,2.26,0,1,1,2.26,2.25,2.26,2.26,0,0,1-2.26-2.25m63.59,0a2.26,2.26,0,1,1,2.26,2.25,2.26,2.26,0,0,1-2.26-2.25M44.2,30.26c0-7.64,4.38-13.85,9.77-13.85s9.78,6.21,9.78,13.85S59.36,44.11,54,44.11,44.2,37.9,44.2,30.26M51.52,2.45v9.33a14.13,14.13,0,0,0-8.3,5.73H25.8a2.45,2.45,0,0,0,0,4.9H40.65a23,23,0,0,0-1.35,7.85c0,.41,0,.8,0,1.2H2.45a2.45,2.45,0,0,0,0,4.9H15.39A7.33,7.33,0,0,0,15,38.62a7.16,7.16,0,0,0,14.31,0A7.33,7.33,0,0,0,29,36.36H40.1C42.08,43.71,47.55,49,54,49s11.89-5.3,13.88-12.65H79a7,7,0,0,0-.37,2.26,7.16,7.16,0,0,0,14.31,0,7,7,0,0,0-.37-2.26h12.94a2.45,2.45,0,1,0,0-4.9H68.61c0-.4,0-.79,0-1.2a23,23,0,0,0-1.36-7.85H82.14a2.45,2.45,0,1,0,0-4.9H64.72a14.13,14.13,0,0,0-8.3-5.73V2.45a2.45,2.45,0,0,0-4.9,0"/></clipPath><linearGradient id="linear-gradient" x1="-908.74" y1="2004.33" x2="-907.42" y2="2004.33" gradientTransform="matrix(0, 265.97, -265.97, 0, 533152.99, 241569.61)" gradientUnits="userSpaceOnUse"><stop offset="0" stop-color="#e0e219"/><stop offset="1" stop-color="#11b98c"/><stop offset="1" stop-color="#00b696"/></linearGradient><clipPath id="clip-path-2" transform="translate(24.5 53.97)"><path class="cls-1" d="M49.62,22.21a2.46,2.46,0,0,0,0,4.91h8.55a2.46,2.46,0,0,0,0-4.91Z"/></clipPath><linearGradient id="linear-gradient-2" x1="-908.74" y1="2004.33" x2="-907.43" y2="2004.33" gradientTransform="matrix(0.04, 265.97, -265.97, 0.04, 533183.25, 241502.56)" xlink:href="#linear-gradient"/></defs><g id="Capa_2" data-name="Capa 2"><g id="Layer_2" data-name="Layer 2"><g class="cls-2"><rect class="cls-3" x="-1.52" y="-30.98" width="110.98" height="110.98" transform="translate(22.98 99.31) rotate(-45)"/></g><g class="cls-4"><rect class="cls-5" x="47.41" y="18.18" width="12.98" height="12.98" transform="translate(22.85 99.3) rotate(-44.99)"/></g></g></g></svg>