<svg xmlns="http://www.w3.org/2000/svg" xmlns:xlink="http://www.w3.org/1999/xlink" viewBox="0 0 100.52 100.52"><defs><style>.cls-1{fill:none;clip-rule:evenodd;}.cls-2{clip-path:url(#clip-path);}.cls-3{fill:url(#linear-gradient);}.cls-4{clip-path:url(#clip-path-2);}.cls-5{clip-path:url(#clip-path-3);}.cls-6{clip-path:url(#clip-path-4);}.cls-7{clip-path:url(#clip-path-5);}</style><clipPath id="clip-path" transform="translate(25.8 25.7)"><path class="cls-1" d="M21.28,40.65c-2,.46-3.35-.65-4.61-1.94-2.08-2.12-4.2-4.21-6.3-6.31s-2-2-2.25-4.84C6.3,27.28,4.47,27,2.64,26.7c-1.26-.18-2.31-.68-2.53-2a3.4,3.4,0,0,1,.37-2.13C2,20.05,3.7,17.62,5.33,15.17a4.22,4.22,0,0,1,3.53-1.74c1.92-.13,3.84-.25,5.75-.46a2,2,0,0,0,1.23-.64C21.52,5.74,28.55,1.54,37.23.39A59.06,59.06,0,0,1,45,0a3.79,3.79,0,0,1,3.9,3.88c.25,8.86-1.63,17.09-7.45,24.06a69.47,69.47,0,0,1-4.86,5,2,2,0,0,0-.72,1.4c-.12,1.81-.32,3.6-.39,5.41A4.8,4.8,0,0,1,33.06,44c-2.16,1.33-4.23,2.79-6.34,4.18s-4.16.6-4.56-2C21.89,44.34,21.59,42.54,21.28,40.65ZM42.43,2.89v-.1c-1.16.09-2.32.16-3.48.29C27.35,4.34,19.28,10.67,13.68,20.6a.87.87,0,0,0,.21,1.26Q20.51,28.42,27.06,35a.85.85,0,0,0,1.19.19A35.43,35.43,0,0,0,35,30.48c8.08-7,11.37-15.95,11-26.46,0-.75-.35-1.14-1.11-1.13Zm-17.91,34L12,24.34c-.31,1.19-.69,2.45-.92,3.73a1.75,1.75,0,0,0,.39,1.32q4,4.06,8,8a1.66,1.66,0,0,0,1.24.38C22.05,37.56,23.33,37.18,24.52,36.87ZM12.76,16c-1.21.1-2.53.22-3.85.28a1.8,1.8,0,0,0-1.54.95C6.59,18.51,5.75,19.73,4.93,21L3,23.86l5.63.89C10.05,21.8,11.4,18.93,12.76,16ZM25,45.85c2.41-1.59,4.71-3.11,7-4.64a.91.91,0,0,0,.43-.53c.17-1.56.3-3.12.42-4.58l-8.73,4.11C24.41,42,24.7,43.84,25,45.85Z"/></clipPath><linearGradient id="linear-gradient" x1="-937.61" y1="1836.73" x2="-936.76" y2="1836.73" gradientTransform="matrix(0, 265.97, -265.97, 0, 488543.81, 249303.28)" gradientUnits="userSpaceOnUse"><stop offset="0" stop-color="#e0e219"/><stop offset="1" stop-color="#11b98c"/><stop offset="1" stop-color="#00b696"/></linearGradient><clipPath id="clip-path-2" transform="translate(25.8 25.7)"><path class="cls-1" d="M1.38,48.84a1.2,1.2,0,0,1-.69-.15,1.4,1.4,0,0,1-.53-1.56A3.83,3.83,0,0,1,1.5,45.36l1.85-1.85c1.23-1.23,2.46-2.47,3.7-3.7l2.08-2.07c1-1,2.12-.88,2.6.26.3.72-.08,1.23-.55,1.7L6.56,44.33c-1.3,1.3-2.59,2.61-3.9,3.88A2.14,2.14,0,0,1,1.38,48.84Z"/></clipPath><clipPath id="clip-path-3" transform="translate(25.8 25.7)"><path class="cls-1" d="M7.45,34.08A2.14,2.14,0,0,1,7,35.3a11.26,11.26,0,0,1-1.25,1.24c-.67.69-1.36,1.37-2.05,2.05-.38.39-.77.77-1.17,1.15a1.4,1.4,0,0,1-2.15.11,1.44,1.44,0,0,1,.1-2.1c1.48-1.52,3-3,4.52-4.47a1.67,1.67,0,0,1,2-.1A1.13,1.13,0,0,1,7.45,34.08Z"/></clipPath><clipPath id="clip-path-4" transform="translate(25.8 25.7)"><path class="cls-1" d="M16.21,42.72a.33.33,0,0,1,0,.17,4.53,4.53,0,0,1-.36.64,9.42,9.42,0,0,1-1.63,1.77c-.64.65-1.29,1.3-1.94,1.94-.35.36-.71.71-1.07,1.06A1.48,1.48,0,0,1,9,48.41c-.58-.62-.52-1.4.22-2.16,1.45-1.47,2.91-2.92,4.38-4.37a1.37,1.37,0,0,1,1.73-.36A2.35,2.35,0,0,1,16.21,42.72Z"/></clipPath><clipPath id="clip-path-5" transform="translate(25.8 25.7)"><path class="cls-1" d="M33.52,22.53a7.16,7.16,0,0,1-.05-14.32,7.22,7.22,0,0,1,7.2,7.15A7.14,7.14,0,0,1,33.52,22.53ZM37.8,15.4a4.3,4.3,0,1,0-4.31,4.27A4.36,4.36,0,0,0,37.8,15.4Z"/></clipPath></defs><g id="Capa_2" data-name="Capa 2"><g id="Layer_2" data-name="Layer 2"><g class="cls-2"><rect class="cls-3" x="-11.08" y="-10.98" width="71.08" height="71.08" transform="translate(15.6 50.19) rotate(-45)"/></g><g class="cls-4"><rect class="cls-3" x="-11.08" y="-10.98" width="71.08" height="71.08" transform="translate(15.6 50.19) rotate(-45)"/></g><g class="cls-5"><rect class="cls-3" x="-11.08" y="-10.98" width="71.08" height="71.08" transform="translate(15.6 50.19) rotate(-45)"/></g><g class="cls-6"><rect class="cls-3" x="-11.08" y="-10.98" width="71.08" height="71.08" transform="translate(15.6 50.19) rotate(-45)"/></g><g class="cls-7"><rect class="cls-3" x="-11.08" y="-10.98" width="71.08" height="71.08" transform="translate(15.6 50.19) rotate(-45)"/></g></g></g></svg>