<svg xmlns="http://www.w3.org/2000/svg" xmlns:xlink="http://www.w3.org/1999/xlink" viewBox="0 0 90.67 90.67"><defs><style>.cls-1{fill:none;clip-rule:evenodd;}.cls-2{clip-path:url(#clip-path);}.cls-3{fill:url(#linear-gradient);}.cls-4{clip-path:url(#clip-path-2);}.cls-5{clip-path:url(#clip-path-3);}.cls-6{clip-path:url(#clip-path-4);}</style><clipPath id="clip-path" transform="translate(20.78 20.78)"><path class="cls-1" d="M24.52,49.1c-4.82,0-9.64,0-14.46,0A10,10,0,0,1,.61,42.41,9.79,9.79,0,0,1,0,39.25C0,29.46,0,19.68,0,9.89A9.94,9.94,0,0,1,9.87,0Q24.54,0,39.22,0a10,10,0,0,1,9.86,9.83q.06,14.69,0,29.36a10,10,0,0,1-9.84,9.86c-4.91,0-9.81,0-14.72,0Zm0-2.9c4.62,0,9.23,0,13.85,0A8.62,8.62,0,0,0,40.71,46c3.58-1,5.48-3.61,5.48-7.47q0-13.94,0-27.86A10.64,10.64,0,0,0,46,8.37,7.28,7.28,0,0,0,38.46,2.9c-9.26.05-18.52,0-27.78,0a8.63,8.63,0,0,0-2.33.24A7.06,7.06,0,0,0,2.92,10.5c0,9.37,0,18.75,0,28.12a8.57,8.57,0,0,0,.73,3.47C5,45,7.46,46.21,10.6,46.21,15.24,46.19,19.89,46.2,24.53,46.2Z"/></clipPath><linearGradient id="linear-gradient" x1="-1615" y1="1835.03" x2="-1614.23" y2="1835.03" gradientTransform="matrix(0, 265.97, -265.97, 0, 488085.71, 429487)" gradientUnits="userSpaceOnUse"><stop offset="0" stop-color="#e0e219"/><stop offset="1" stop-color="#11b98c"/><stop offset="1" stop-color="#00b696"/></linearGradient><clipPath id="clip-path-2" transform="translate(20.78 20.78)"><path class="cls-1" d="M24.55,11.82c.21-.3.33-.49.47-.68a2.41,2.41,0,0,1,3.26-.67,2.37,2.37,0,0,1,.77,3.23c-1.44,2.57-2.93,5.12-4.4,7.68-1.21,2.12-2.44,4.23-3.76,6.54a23.07,23.07,0,0,0,3.13,0,2.57,2.57,0,0,1,3.07,1.79,27.68,27.68,0,0,0,1.68,3c-.4,0-.68.05-1,.05-5.55,0-11.1,0-16.65,0a4.27,4.27,0,0,1-2-.55,2.07,2.07,0,0,1-.81-2.49A2.1,2.1,0,0,1,10.24,28c1.37-.09,2.75-.09,4.12-.05a1.39,1.39,0,0,0,1.44-.81q2.77-4.9,5.64-9.78a1,1,0,0,0,0-1.25c-.46-.71-.86-1.46-1.27-2.2a2.41,2.41,0,0,1,.7-3.45,2.47,2.47,0,0,1,3.4,1Z"/></clipPath><clipPath id="clip-path-3" transform="translate(20.78 20.78)"><path class="cls-1" d="M36.56,32.71c.57,1,1,1.77,1.49,2.58a2.41,2.41,0,1,1-4.17,2.38c-2.75-4.74-5.48-9.49-8.23-14.26l2.74-4.74c.23.36.39.61.54.87,1.5,2.57,3,5.14,4.46,7.73a1.13,1.13,0,0,0,1.17.66c1.32,0,2.63,0,3.94,0a2.39,2.39,0,0,1,2.31,1.7,2.31,2.31,0,0,1-1,2.67,4.17,4.17,0,0,1-1.49.4A16.81,16.81,0,0,1,36.56,32.71Z"/></clipPath><clipPath id="clip-path-4" transform="translate(20.78 20.78)"><path class="cls-1" d="M17,34.64c-.8,1.32-1.42,2.55-2.23,3.62a2.3,2.3,0,0,1-3.42.05,2.56,2.56,0,0,1,0-3.5.57.57,0,0,1,.38-.16Z"/></clipPath></defs><g id="Capa_2" data-name="Capa 2"><g id="Layer_2" data-name="Layer 2"><g class="cls-2"><rect class="cls-3" x="-7.5" y="-7.5" width="64.11" height="64.11" transform="translate(10.61 45.34) rotate(-45)"/></g><g class="cls-4"><rect class="cls-3" x="-7.5" y="-7.5" width="64.11" height="64.11" transform="translate(10.61 45.34) rotate(-45)"/></g><g class="cls-5"><rect class="cls-3" x="-7.5" y="-7.5" width="64.11" height="64.11" transform="translate(10.61 45.34) rotate(-45)"/></g><g class="cls-6"><rect class="cls-3" x="-7.5" y="-7.5" width="64.11" height="64.11" transform="translate(10.61 45.34) rotate(-45)"/></g></g></g></svg>