<svg xmlns="http://www.w3.org/2000/svg" xmlns:xlink="http://www.w3.org/1999/xlink" viewBox="0 0 91.94 91.94"><defs><style>.cls-1{fill:none;clip-rule:evenodd;}.cls-2{clip-path:url(#clip-path);}.cls-3{fill:url(#linear-gradient);}</style><clipPath id="clip-path" transform="translate(21.45 21.45)"><path class="cls-1" d="M33.33,35.45c-3.76-4.94-13.59-5-17.66,0a8.61,8.61,0,0,1,1.19,7.47,8.42,8.42,0,0,1-3.58,4.7A8.6,8.6,0,0,1,1.67,35.34c2.71-3.74,6.73-4.42,11.93-2,4.91-3.84,4.9-13.84,0-17.62-5.42,2.43-9.48,1.66-12.13-2.3A8.6,8.6,0,0,1,13.85,1.79a8.58,8.58,0,0,1,1.86,11.75c3.55,4.8,13.51,5.19,17.62,0-2.47-5-1.75-9.21,2-11.93a8.61,8.61,0,0,1,12,12.07,8.59,8.59,0,0,1-11.86,2c-4.66,3.46-5.23,13.35,0,17.66a8.68,8.68,0,0,1,7.47-1.19,8.61,8.61,0,1,1-7.57,15.2C31.6,44.67,30.92,40.63,33.33,35.45Zm4.28-21.87a5.73,5.73,0,0,0,7.6-1.83,5.8,5.8,0,0,0-.92-7.34,5.69,5.69,0,0,0-7.86.08c-1.73,1.57-2.43,4.86-.9,6.92l2.74-2.85A6.62,6.62,0,0,1,37.84,8,1.37,1.37,0,0,1,38,6.17,1.21,1.21,0,0,1,39.77,6C40.89,7.05,42,8.13,43,9.25a1.23,1.23,0,0,1-.16,1.81,1.26,1.26,0,0,1-1.74.16c-.24-.16-.46-.34-.57-.42C39.53,11.75,38.58,12.65,37.61,13.58Zm-24-2.14A5.71,5.71,0,1,0,4.5,12.6c1.57,1.73,4.85,2.44,6.92.91L8.57,10.77a6.77,6.77,0,0,1-.64.46,1.34,1.34,0,0,1-1.69-.15A1.17,1.17,0,0,1,6,9.42,44.79,44.79,0,0,1,9.4,6a1.17,1.17,0,0,1,1.66.24,1.26,1.26,0,0,1,.21,1.67c-.17.27-.37.51-.46.64ZM40.49,38.25a4.47,4.47,0,0,1,.6-.44,1.34,1.34,0,0,1,1.7.13,1.2,1.2,0,0,1,.26,1.73,43.37,43.37,0,0,1-3.4,3.38A1.17,1.17,0,0,1,38,42.83a1.26,1.26,0,0,1-.23-1.67c.17-.27.37-.51.43-.59L35.4,37.69a5.7,5.7,0,0,0,1.71,7.41,5.74,5.74,0,0,0,7.62-8.47,5.62,5.62,0,0,0-7.11-1.13ZM11.42,35.46a5.69,5.69,0,0,0-7.36,1.47,5.82,5.82,0,0,0,.51,7.53A5.81,5.81,0,0,0,12.1,45a5.68,5.68,0,0,0,1.49-7.33l-2.8,2.85a6.51,6.51,0,0,1,.46.63,1.36,1.36,0,0,1-.18,1.7,1.21,1.21,0,0,1-1.74.2A43.59,43.59,0,0,1,6,39.69,1.21,1.21,0,0,1,6.23,38a1.27,1.27,0,0,1,1.68-.17c.26.16.5.36.61.44Z"/></clipPath><linearGradient id="linear-gradient" x1="-1276.28" y1="1835.89" x2="-1275.5" y2="1835.89" gradientTransform="matrix(0, 265.97, -265.97, 0, 488319.82, 339390.85)" gradientUnits="userSpaceOnUse"><stop offset="0" stop-color="#e0e219"/><stop offset="1" stop-color="#11b98c"/><stop offset="1" stop-color="#00b696"/></linearGradient></defs><g id="Capa_2" data-name="Capa 2"><g id="Layer_2" data-name="Layer 2"><g class="cls-2"><rect class="cls-3" x="-7.98" y="-7.99" width="65.01" height="65.01" transform="translate(11.29 45.97) rotate(-45)"/></g></g></g></svg>