<svg xmlns="http://www.w3.org/2000/svg" xmlns:xlink="http://www.w3.org/1999/xlink" viewBox="0 0 97.41 97.41"><defs><style>.cls-1{fill:none;clip-rule:evenodd;}.cls-2{clip-path:url(#clip-path);}.cls-3{fill:url(#linear-gradient);}.cls-4{clip-path:url(#clip-path-2);}.cls-5{clip-path:url(#clip-path-3);}.cls-6{clip-path:url(#clip-path-4);}.cls-7{clip-path:url(#clip-path-5);}.cls-8{clip-path:url(#clip-path-6);}</style><clipPath id="clip-path" transform="translate(18.68 17.88)"><path class="cls-1" d="M48.24,29.55l6.12-3.27c1-.56,2.09-1.13,3.14-1.68,1.52-.8,2.55-.18,2.55,1.57,0,5.59,0,11.18,0,16.77,0,1.07,0,2.14,0,3.21,0,2.12-1,2.68-2.88,1.66L49.1,43.49c-.2-.11-.41-.19-.86-.38,0,1.33,0,2.5,0,3.66,0,1.74-.48,2.19-2.19,2.2H7.46c-1.72,0-2.17-.46-2.17-2.2,0-2,0-3.95,0-6.08H1.91C.51,40.65,0,40.19,0,38.83c0-1.71,0-3.42,0-5.12,0-1.27.53-1.79,1.82-1.83,1.1,0,2.2,0,3.45,0V26.46c0-2.53,0-2.6,2.63-3a10.32,10.32,0,0,1-2.68-7.73A9.77,9.77,0,0,1,9.08,8.65C13.27,5.39,17.71,5.83,23,10,25,3.88,29.11.2,35.65,0A12.41,12.41,0,0,1,48,7.82c2.62,5.86,1.17,11.11-3.51,15.8.75,0,1.32,0,1.88,0,1.32.06,1.78.51,1.82,1.83S48.24,28.05,48.24,29.55ZM45.17,45.94V26.67H8.38V45.94ZM36,23.6a10.33,10.33,0,1,0-10.4-10.33A10.34,10.34,0,0,0,36,23.6Zm21.13,4.61c-2.92,1.58-5.68,3-8.4,4.56-.27.15-.42.71-.43,1.09,0,1.62,0,3.25,0,4.87a1.33,1.33,0,0,0,.87,1.37c2,1,4,2.16,6.07,3.24l1.93,1ZM22.27,16.69a7.09,7.09,0,0,0-7-7.21,7.29,7.29,0,0,0-7.13,7A7.12,7.12,0,0,0,15,23.59,6.94,6.94,0,0,0,22.27,16.69Zm.41,6.84h4.56l-2.63-3.07ZM3,34.92v2.74H5.2V34.92Z"/></clipPath><linearGradient id="linear-gradient" x1="-254.04" y1="1671.03" x2="-253.22" y2="1671.03" gradientTransform="matrix(0, 265.97, -265.97, 0, 444476.49, 67509.07)" gradientUnits="userSpaceOnUse"><stop offset="0" stop-color="#e0e219"/><stop offset="1" stop-color="#11b98c"/><stop offset="1" stop-color="#00b696"/></linearGradient><clipPath id="clip-path-2" transform="translate(18.68 17.88)"><path class="cls-1" d="M23.11,41.63h-7.6c-1.5,0-1.92-.42-1.93-1.9,0-2.33,0-4.67,0-7,0-1.31.48-1.8,1.8-1.8q7.66,0,15.32,0c1.4,0,1.9.54,1.91,2,0,2.25,0,4.51,0,6.76,0,1.51-.48,1.95-2,2ZM16.48,38.7h13.2V33.82H16.48Z"/></clipPath><clipPath id="clip-path-3" transform="translate(18.68 17.88)"><path class="cls-1" d="M39,40.2a1.46,1.46,0,1,1,0-2.92,1.4,1.4,0,0,1,1.43,1.42A1.46,1.46,0,0,1,39,40.2Z"/></clipPath><clipPath id="clip-path-4" transform="translate(18.68 17.88)"><path class="cls-1" d="M40.45,33.85a1.56,1.56,0,0,1-1.54,1.48,1.51,1.51,0,0,1-1.44-1.57,1.45,1.45,0,0,1,1.47-1.41A1.53,1.53,0,0,1,40.45,33.85Z"/></clipPath><clipPath id="clip-path-5" transform="translate(18.68 17.88)"><path class="cls-1" d="M35.89,19.73a6.46,6.46,0,1,1,6.54-6.42A6.46,6.46,0,0,1,35.89,19.73ZM36,16.79a3.64,3.64,0,0,0,3.53-3.49A3.65,3.65,0,0,0,36,9.77a3.51,3.51,0,1,0,0,7Z"/></clipPath><clipPath id="clip-path-6" transform="translate(18.68 17.88)"><path class="cls-1" d="M10.76,16.56a4.47,4.47,0,0,1,4.52-4.5,4.54,4.54,0,0,1,4.48,4.56,4.6,4.6,0,0,1-4.49,4.47A4.53,4.53,0,0,1,10.76,16.56Zm4.48,1.81a1.77,1.77,0,0,0,1.81-1.78,1.82,1.82,0,1,0-3.63,0A1.83,1.83,0,0,0,15.24,18.37Z"/></clipPath></defs><g id="Capa_2" data-name="Capa 2"><g id="Layer_2" data-name="Layer 2"><g class="cls-2"><rect class="cls-3" x="-4.41" y="-3.61" width="68.88" height="68.88" transform="translate(5.67 48.14) rotate(-45)"/></g><g class="cls-4"><rect class="cls-3" x="-4.41" y="-3.61" width="68.88" height="68.88" transform="translate(5.67 48.14) rotate(-45)"/></g><g class="cls-5"><rect class="cls-3" x="-4.41" y="-3.61" width="68.88" height="68.88" transform="translate(5.67 48.14) rotate(-45)"/></g><g class="cls-6"><rect class="cls-3" x="-4.41" y="-3.61" width="68.88" height="68.88" transform="translate(5.67 48.14) rotate(-45)"/></g><g class="cls-7"><rect class="cls-3" x="-4.41" y="-3.61" width="68.88" height="68.88" transform="translate(5.67 48.14) rotate(-45)"/></g><g class="cls-8"><rect class="cls-3" x="-4.41" y="-3.61" width="68.88" height="68.88" transform="translate(5.67 48.14) rotate(-45)"/></g></g></g></svg>