<svg xmlns="http://www.w3.org/2000/svg" xmlns:xlink="http://www.w3.org/1999/xlink" viewBox="0 0 106.02 106.02"><defs><style>.cls-1{fill:none;}.cls-2{clip-path:url(#clip-path);}.cls-3{fill:url(#linear-gradient);}.cls-4{clip-path:url(#clip-path-2);}.cls-5{clip-path:url(#clip-path-3);}.cls-6{clip-path:url(#clip-path-4);}</style><clipPath id="clip-path" transform="translate(23.16 28.51)"><path class="cls-1" d="M59.7,15.33a5.33,5.33,0,0,0-5.61-5.59H50.45c-1.28,0-2.35,0-3.37,0h0c-.41,0-.56-.07-.74-.54-.46-1.21-.95-2.43-1.43-3.6-.55-1.39-1.13-2.82-1.67-4.24a1.91,1.91,0,0,0-2-1.37c-3.8,0-7.6,0-11.28,0S22.24,0,18.51,0a1.91,1.91,0,0,0-2,1.39c-.68,1.79-1.41,3.6-2.11,5.36-.35.85-.69,1.71-1,2.57a1.26,1.26,0,0,1-.24.43h0a1.37,1.37,0,0,1-.17-.53c0-.46,0-.92,0-1.4s0-1.08,0-1.64a1.62,1.62,0,0,0-1.28-1.3c-.75,0-1.48,0-2.1,0H7.18a1.35,1.35,0,0,0-1,.36,1.5,1.5,0,0,0-.36,1.13c0,.37,0,.76,0,1.13,0,.59,0,1.21,0,1.82a1.1,1.1,0,0,1,0,.42s-.09.06-.45.07A5.26,5.26,0,0,0,0,15.23c0,8.68,0,17.86,0,28.06A6,6,0,0,0,.21,45C.94,47.58,3,49,6,49H53.84a5.48,5.48,0,0,0,5.86-5.81C59.71,34.91,59.71,25.13,59.7,15.33ZM56.52,42.81c0,2.22-.78,3-3,3H6.27c-2.37,0-3.09-.72-3.09-3.09V15.8c0-2.15.69-2.85,2.84-2.86h4.06c1.47,0,2.7,0,3.86,0H14a1.84,1.84,0,0,0,1.9-1.35c.52-1.33,1.06-2.69,1.58-4s1-2.56,1.52-3.85a.74.74,0,0,1,.87-.59h0c3.42,0,6.78,0,10,0l10,0c.54,0,.7.11.91.65.46,1.21,1,2.43,1.42,3.61s1.07,2.7,1.58,4.05A2,2,0,0,0,45.94,13c1.06,0,2.19,0,3.56,0h4.15c2.14,0,2.87.73,2.87,2.85C56.53,24.06,56.53,32.9,56.52,42.81ZM9.07,9V8.84c0-.28,0-.57,0-.74h.68v0a7.1,7.1,0,0,0,0,1.13,1.28,1.28,0,0,1,0,.46.79.79,0,0,1-.33,0h0a1.17,1.17,0,0,1-.36,0h0a.83.83,0,0,1,0-.39A1.65,1.65,0,0,0,9.07,9Z"/></clipPath><linearGradient id="linear-gradient" x1="-255.15" y1="2006.14" x2="-254.26" y2="2006.14" gradientTransform="matrix(0, 265.97, -265.97, 0, 533605.85, 67786.74)" gradientUnits="userSpaceOnUse"><stop offset="0" stop-color="#e0e219"/><stop offset="1" stop-color="#11b98c"/><stop offset="1" stop-color="#00b696"/></linearGradient><clipPath id="clip-path-2" transform="translate(23.16 28.51)"><path class="cls-1" d="M29.71,8.77h-.17a18.19,18.19,0,0,0-17.85,18,18.49,18.49,0,0,0,5.32,13A18.1,18.1,0,0,0,30,45.1h.1A18.24,18.24,0,0,0,42.8,39.63,17.65,17.65,0,0,0,48,27.06,18.21,18.21,0,0,0,29.71,8.77ZM44.82,27a15,15,0,0,1-29.94-.24A15.12,15.12,0,0,1,29.87,12h0A15.11,15.11,0,0,1,44.82,27Z"/></clipPath><clipPath id="clip-path-3" transform="translate(23.16 28.51)"><path class="cls-1" d="M51.28,13.65a4.58,4.58,0,0,0-4.52,4.56,4.47,4.47,0,0,0,4.54,4.46h0a4.43,4.43,0,0,0,4.43-4.47A4.58,4.58,0,0,0,54.45,15,4.46,4.46,0,0,0,51.28,13.65ZM50,18.18a1.38,1.38,0,0,1,1.29-1.33h0a1.32,1.32,0,0,1,.92.41,1.3,1.3,0,0,1-.94,2.23h0A1.35,1.35,0,0,1,50,18.18Z"/></clipPath><clipPath id="clip-path-4" transform="translate(23.16 28.51)"><path class="cls-1" d="M29.92,14.67h-.06a12.36,12.36,0,0,0-8.65,3.53,11.89,11.89,0,0,0-3.67,8.47,12.56,12.56,0,0,0,3.51,8.9,12.19,12.19,0,0,0,8.71,3.72h.1a12.31,12.31,0,0,0,.06-24.62Zm-.07,3.16v-.62h0l0,.62A9.23,9.23,0,0,1,39,27a8.77,8.77,0,0,1-2.59,6.27,9.14,9.14,0,0,1-15.65-6.45,8.8,8.8,0,0,1,2.64-6.28A9.09,9.09,0,0,1,29.85,17.83Z"/></clipPath></defs><g id="Capa_2" data-name="Capa 2"><g id="Layer_2" data-name="Layer 2"><g class="cls-2"><rect class="cls-3" x="-7.63" y="-12.98" width="74.97" height="74.97" transform="translate(14.58 56.8) rotate(-45)"/></g><g class="cls-4"><rect class="cls-3" x="-7.63" y="-12.98" width="74.97" height="74.97" transform="translate(14.58 56.8) rotate(-45)"/></g><g class="cls-5"><rect class="cls-3" x="-7.63" y="-12.98" width="74.97" height="74.97" transform="translate(14.58 56.8) rotate(-45)"/></g><g class="cls-6"><rect class="cls-3" x="-7.63" y="-12.98" width="74.97" height="74.97" transform="translate(14.58 56.8) rotate(-45)"/></g></g></g></svg>