<svg xmlns="http://www.w3.org/2000/svg" xmlns:xlink="http://www.w3.org/1999/xlink" viewBox="0 0 96.42 96.42"><defs><style>.cls-1{fill:none;clip-rule:evenodd;}.cls-2{clip-path:url(#clip-path);}.cls-3{fill:url(#linear-gradient);}</style><clipPath id="clip-path" transform="translate(26.7 27.41)"><path class="cls-1" d="M21.5,24.1c.87-1.71,1.84-3.49,2.68-5.33A4,4,0,0,0,24.24,17a15.81,15.81,0,0,1,.85-7.06,14.19,14.19,0,0,1,8.59-8.28A27.34,27.34,0,0,1,41.16,0c1.27-.12,2.1.65,1.8,1.8C42,5.32,41.18,8.87,40,12.29c-1.45,4.21-4.57,6.47-9.06,6.75a5.16,5.16,0,0,0-.77.13c-3.85.71-3.14.23-4.9,3.7-1.63,3.21-2,6.73-2.17,10.26,0,.24,0,.48,0,.7-.17.75.19,1,.85,1.29a15.47,15.47,0,0,1,2.94,2,1.44,1.44,0,0,0,1.19.47,5.64,5.64,0,0,1,5.32,2.36,2,2,0,0,0,.88.63,4.29,4.29,0,0,1-1.3,8.39q-11.44,0-22.89,0a4.28,4.28,0,0,1-4.27-3.64,4.33,4.33,0,0,1,3-4.76,2.18,2.18,0,0,0,.92-.7,5.63,5.63,0,0,1,5.19-2.29,1.25,1.25,0,0,0,1.27-.47A6.16,6.16,0,0,1,19.32,35c.39-.12.68-.21.65-.74-.19-3.43-.33-6.88-1.68-10.11a41,41,0,0,0-1.93-3.8,1.31,1.31,0,0,0-.8-.58c-1.65-.36-3.29-.75-5-1-3.5-.47-5.73-2.5-7.19-5.55A49.26,49.26,0,0,1,.17,2.49C.12,2.24,0,2,0,1.73A1.42,1.42,0,0,1,1.59,0C6.12.4,10.47,1.39,14.05,4.43A12.78,12.78,0,0,1,18.7,13.5c.1,1.45,0,2.91,0,4.36a2,2,0,0,0,.08.85C19.68,20.55,20.62,22.37,21.5,24.1Zm0,21.95H32.68c1.09,0,1.67-.49,1.71-1.34s-.5-1.4-1.57-1.49a1.66,1.66,0,0,1-1.49-1,2.8,2.8,0,0,0-3.8-1.59c-1.12.39-1.68.23-2.24-.82a4.29,4.29,0,0,0-7.59,0c-.55,1-1.11,1.19-2.25.8a2.73,2.73,0,0,0-3.71,1.46,1.8,1.8,0,0,1-1.67,1.16,1.34,1.34,0,0,0-1.43,1.24c-.13,1,.51,1.58,1.79,1.58ZM15.88,14.24c.12-6.73-6.7-10.78-12.8-11C4,6.11,4.85,9,5.86,11.73c1.21,3.34,3.92,4.44,7.33,4.46-.21-.24-.38-.47-.57-.67-.94-.95-1.9-1.89-2.81-2.86a1.43,1.43,0,0,1-.05-1.91,1.41,1.41,0,0,1,1.89-.18,10.27,10.27,0,0,1,.8.68ZM29.8,16.11l.12.18c.79-.14,1.59-.29,2.39-.4a5.13,5.13,0,0,0,4.21-3A59.67,59.67,0,0,0,38.79,7c.41-1.22.63-2.5.94-3.78C33.24,3,26.1,9.58,27.12,14.27c1.08-.95,2.33-2,3.56-3.14,1.05-1,1.83-1.1,2.5-.44s.49,1.51-.53,2.54S30.75,15.15,29.8,16.11Z"/></clipPath><linearGradient id="linear-gradient" x1="-1618.52" y1="2002.48" x2="-1617.71" y2="2002.48" gradientTransform="matrix(0, 265.97, -265.97, 0, 532625.94, 430410.37)" gradientUnits="userSpaceOnUse"><stop offset="0" stop-color="#e0e219"/><stop offset="1" stop-color="#11b98c"/><stop offset="1" stop-color="#00b696"/></linearGradient></defs><g id="Capa_2" data-name="Capa 2"><g id="Layer_2" data-name="Layer 2"><g class="cls-2"><rect class="cls-3" x="-12.58" y="-13.29" width="68.18" height="68.18" transform="translate(18.29 48.71) rotate(-45)"/></g></g></g></svg>