<svg xmlns="http://www.w3.org/2000/svg" xmlns:xlink="http://www.w3.org/1999/xlink" viewBox="0 0 93.35 93.35"><defs><style>.cls-1{fill:none;clip-rule:evenodd;}.cls-2{clip-path:url(#clip-path);}.cls-3{fill:url(#linear-gradient);}.cls-4{clip-path:url(#clip-path-2);}.cls-5{clip-path:url(#clip-path-3);}.cls-6{clip-path:url(#clip-path-4);}.cls-7{clip-path:url(#clip-path-5);}.cls-8{clip-path:url(#clip-path-6);}.cls-9{clip-path:url(#clip-path-7);}.cls-10{clip-path:url(#clip-path-8);}.cls-11{clip-path:url(#clip-path-9);}</style><clipPath id="clip-path" transform="translate(16.18 16.18)"><path class="cls-1" d="M45.78,30.52A15.29,15.29,0,1,1,30.52,15.21,15.22,15.22,0,0,1,45.78,30.52ZM30.39,41.6a11.11,11.11,0,1,0-11-11.23A11,11,0,0,0,30.39,41.6Z"/></clipPath><linearGradient id="linear-gradient" x1="-593.23" y1="2011.23" x2="-592.44" y2="2011.23" gradientTransform="matrix(0, 265.97, -265.97, 0, 534959.57, 157727.03)" gradientUnits="userSpaceOnUse"><stop offset="0" stop-color="#e0e219"/><stop offset="1" stop-color="#11b98c"/><stop offset="1" stop-color="#00b696"/></linearGradient><clipPath id="clip-path-2" transform="translate(16.18 16.18)"><path class="cls-1" d="M32.61,5.24c0,1,0,2,0,2.93a2.11,2.11,0,1,1-4.21,0c0-2,0-3.92,0-5.87a2.11,2.11,0,1,1,4.21,0C32.64,3.28,32.61,4.26,32.61,5.24Z"/></clipPath><clipPath id="clip-path-3" transform="translate(16.18 16.18)"><path class="cls-1" d="M55.82,32.61c-1,0-2,0-2.94,0a2.11,2.11,0,1,1,0-4.21c1.95,0,3.91,0,5.87,0A2.14,2.14,0,0,1,61,30.55a2.17,2.17,0,0,1-2.24,2.06H55.82Z"/></clipPath><clipPath id="clip-path-4" transform="translate(16.18 16.18)"><path class="cls-1" d="M28.38,55.87c0-1,0-2,0-3a2.11,2.11,0,1,1,4.21,0q.06,3,0,6A2.1,2.1,0,0,1,30.49,61a2.13,2.13,0,0,1-2.1-2.19C28.34,57.83,28.38,56.85,28.38,55.87Z"/></clipPath><clipPath id="clip-path-5" transform="translate(16.18 16.18)"><path class="cls-1" d="M5.12,32.61c-1,0-2,0-2.93,0a2.11,2.11,0,1,1,0-4.21c2,0,4,0,6,0a2.16,2.16,0,0,1,2.26,2.15,2.2,2.2,0,0,1-2.25,2.07h-3Z"/></clipPath><clipPath id="clip-path-6" transform="translate(16.18 16.18)"><path class="cls-1" d="M46,44a1.68,1.68,0,0,1,1.33.53c1.23,1.11,2.4,2.29,3.56,3.47l.9.92A2.05,2.05,0,0,1,52.05,52c-.89.93-2.08.87-3.16-.18-1.4-1.37-2.78-2.76-4.15-4.15a1.88,1.88,0,0,1-.41-2.38A3,3,0,0,1,46,44Z"/></clipPath><clipPath id="clip-path-7" transform="translate(16.18 16.18)"><path class="cls-1" d="M10.15,52.64a2,2,0,0,1-1.59-1.18,2.37,2.37,0,0,1,.19-2.07c1.49-1.71,3.14-3.3,4.8-4.86a1.9,1.9,0,0,1,2.65.18,1.89,1.89,0,0,1,.16,2.65C14.8,49,13.17,50.62,11.53,52.2A1.67,1.67,0,0,1,10.15,52.64Z"/></clipPath><clipPath id="clip-path-8" transform="translate(16.18 16.18)"><path class="cls-1" d="M46.06,16.89a2.29,2.29,0,0,1-.89-.4,2.07,2.07,0,0,1-.72-.78,2.46,2.46,0,0,1,.21-2.08c1.47-1.69,3.1-3.25,4.73-4.79a2,2,0,0,1,2.8,2.9c-.79.83-1.6,1.65-2.42,2.46-.41.42-.82.82-1.25,1.23s-.76.79-1.19,1.13A1.61,1.61,0,0,1,46.06,16.89Z"/></clipPath><clipPath id="clip-path-9" transform="translate(16.18 16.18)"><path class="cls-1" d="M16.75,14.5a.88.88,0,0,1,0,.28,2.14,2.14,0,0,1-1.86,2.07,2.3,2.3,0,0,1-.82-.12,2.94,2.94,0,0,1-1-.65q-2-2-4-4A2.07,2.07,0,1,1,12,9.16c1.38,1.34,2.75,2.7,4.07,4.09A3,3,0,0,1,16.75,14.5Z"/></clipPath></defs><g id="Capa_2" data-name="Capa 2"><g id="Layer_2" data-name="Layer 2"><g class="cls-2"><rect class="cls-3" x="-2.51" y="-2.51" width="66.01" height="66.01" transform="translate(3.55 46.67) rotate(-45)"/></g><g class="cls-4"><rect class="cls-3" x="-2.51" y="-2.51" width="66.01" height="66.01" transform="translate(3.55 46.67) rotate(-45)"/></g><g class="cls-5"><rect class="cls-3" x="-2.51" y="-2.51" width="66.01" height="66.01" transform="translate(3.55 46.67) rotate(-45)"/></g><g class="cls-6"><rect class="cls-3" x="-2.51" y="-2.51" width="66.01" height="66.01" transform="translate(3.55 46.67) rotate(-45)"/></g><g class="cls-7"><rect class="cls-3" x="-2.51" y="-2.51" width="66.01" height="66.01" transform="translate(3.55 46.67) rotate(-45)"/></g><g class="cls-8"><rect class="cls-3" x="-2.51" y="-2.51" width="66.01" height="66.01" transform="translate(3.55 46.67) rotate(-45)"/></g><g class="cls-9"><rect class="cls-3" x="-2.51" y="-2.51" width="66.01" height="66.01" transform="translate(3.55 46.67) rotate(-45)"/></g><g class="cls-10"><rect class="cls-3" x="-2.51" y="-2.51" width="66.01" height="66.01" transform="translate(3.55 46.67) rotate(-45)"/></g><g class="cls-11"><rect class="cls-3" x="-2.51" y="-2.51" width="66.01" height="66.01" transform="translate(3.55 46.67) rotate(-45)"/></g></g></g></svg>