<svg xmlns="http://www.w3.org/2000/svg" xmlns:xlink="http://www.w3.org/1999/xlink" viewBox="0 0 130.07 130.07"><defs><style>.cls-1{fill:none;clip-rule:evenodd;}.cls-2{clip-path:url(#clip-path);}.cls-3{fill:url(#linear-gradient);}.cls-4{clip-path:url(#clip-path-2);}.cls-5{clip-path:url(#clip-path-3);}</style><clipPath id="clip-path" transform="translate(28.34 36.23)"><path class="cls-1" d="M0,48.89V8.83H9V0H22.48V8.73h4.43V0h13.3V8.76h9v8.9H76.12V48.89ZM71.71,22.36H31.44V44.52H71.71ZM4.46,26.53H27V17.67H44.72V13.36H4.46Zm22.36,18V31.32H4.46v13.2ZM31.37,4.34c0,1.35,0,2.65,0,3.95,0,.18.4.5.62.51,1.25,0,2.51,0,3.75,0V4.34Zm-13.49.07H13.64V8.72h4.24Z"/></clipPath><linearGradient id="linear-gradient" x1="-246.58" y1="1838.54" x2="-245.48" y2="1838.54" gradientTransform="matrix(0, 265.97, -265.97, 0, 489036.93, 65486.76)" gradientUnits="userSpaceOnUse"><stop offset="0" stop-color="#e0e219"/><stop offset="1" stop-color="#11b98c"/><stop offset="1" stop-color="#00b696"/></linearGradient><clipPath id="clip-path-2" transform="translate(28.34 36.23)"><path class="cls-1" d="M35.9,33.43a6.68,6.68,0,1,1,6.63,6.64A6.56,6.56,0,0,1,35.9,33.43Zm8.89,0a2.25,2.25,0,0,0-4.49-.08,2.38,2.38,0,0,0,2.15,2.22A2.28,2.28,0,0,0,44.79,33.47Z"/></clipPath><clipPath id="clip-path-3" transform="translate(28.34 36.23)"><path class="cls-1" d="M60.49,40.07a6.71,6.71,0,0,1-6.77-6.7,6.73,6.73,0,1,1,13.45.05A6.7,6.7,0,0,1,60.49,40.07Zm-.11-8.86a2.12,2.12,0,0,0-2.13,2.18,2.18,2.18,0,1,0,4.36-.12A2.1,2.1,0,0,0,60.38,31.21Z"/></clipPath></defs><g id="Capa_2" data-name="Capa 2"><g id="Layer_2" data-name="Layer 2"><g class="cls-2"><rect class="cls-3" x="-9.29" y="-17.18" width="91.98" height="91.98" transform="translate(18.72 70.62) rotate(-45)"/></g><g class="cls-4"><rect class="cls-3" x="-9.29" y="-17.18" width="91.98" height="91.98" transform="translate(18.72 70.62) rotate(-45)"/></g><g class="cls-5"><rect class="cls-3" x="-9.29" y="-17.18" width="91.98" height="91.98" transform="translate(18.72 70.62) rotate(-45)"/></g></g></g></svg>