<svg xmlns="http://www.w3.org/2000/svg" xmlns:xlink="http://www.w3.org/1999/xlink" viewBox="0 0 94.28 94.28"><defs><style>.cls-1{fill:none;clip-rule:evenodd;}.cls-2{clip-path:url(#clip-path);}.cls-3{fill:url(#linear-gradient);}.cls-4{clip-path:url(#clip-path-2);}.cls-5{clip-path:url(#clip-path-3);}.cls-6{clip-path:url(#clip-path-4);}</style><clipPath id="clip-path" transform="translate(14.81 16.81)"><path class="cls-1" d="M33.41,37.53H31a15.48,15.48,0,0,1-3.42,6.21c-4.47,4.85-10,6.46-16.26,4.65S1.47,42.3.27,36A15.72,15.72,0,0,1,15,17.52c2.2-.09,4.39,0,6.59-.06H23c0-1.43,0-2.72,0-4,0-1.93.73-2.65,2.65-2.67,1.5,0,3,0,4.66,0V8.41c0-2,0-4,0-6,0-1.57.77-2.41,2-2.41s2,.85,2,2.41c0,2.72,0,5.45,0,8.35h4.43c2.26,0,2.88.64,2.89,2.9v3.8c2.21,0,4.29-.13,6.35,0a26.18,26.18,0,0,1,6.44,1C64.75,22.17,68,35.63,60.73,43.7c-6.88,7.6-18.92,7-24.66-1.2A48.38,48.38,0,0,1,33.41,37.53Zm-.95-16h0c-5.55,0-11.09,0-16.64,0A11.64,11.64,0,0,0,4.1,32.93,11,11,0,0,0,10.3,43.6a11.15,11.15,0,0,0,12.51-.92,11.36,11.36,0,0,0,4.49-6.91c.43-1.89.95-2.28,2.86-2.28,1.42,0,2.85,0,4.27,0,2.06,0,2.52.37,3,2.4,1.09,4.64,5.09,8.42,9.49,9,5.42.67,10-1.65,12.44-6.26a11.75,11.75,0,0,0-10-17C43.7,21.43,38.08,21.53,32.46,21.53Zm-5.34-6.69v2.55H37.57V14.84Z"/></clipPath><linearGradient id="linear-gradient" x1="-590.93" y1="1837.75" x2="-590.13" y2="1837.75" gradientTransform="matrix(0, 265.97, -265.97, 0, 488822.36, 157110.93)" gradientUnits="userSpaceOnUse"><stop offset="0" stop-color="#e0e219"/><stop offset="1" stop-color="#11b98c"/><stop offset="1" stop-color="#00b696"/></linearGradient><clipPath id="clip-path-2" transform="translate(14.81 16.81)"><path class="cls-1" d="M13.82,35.34c-1.16,0-2.12,0-3.07,0a2.25,2.25,0,0,1-2.36-2,2.18,2.18,0,0,1,2.35-2c.92,0,1.84,0,2.76-.05.07,0,.13-.06.32-.15V28.84c0-2.1.62-3,2-3s2,.9,2,2.91v2.46c1.07,0,2.05,0,3,0,1.46,0,2.3.79,2.31,2a2.1,2.1,0,0,1-2.29,2.07c-1,0-1.91,0-3.05,0,0,1,0,2,0,3,0,1.46-.8,2.32-2,2.32s-2-.87-2-2.34C13.8,37.38,13.82,36.43,13.82,35.34Z"/></clipPath><clipPath id="clip-path-3" transform="translate(14.81 16.81)"><path class="cls-1" d="M49,36.16a2.93,2.93,0,0,1-3,2.93,3,3,0,0,1-2.94-3,3.07,3.07,0,0,1,3-3A3,3,0,0,1,49,36.16Z"/></clipPath><clipPath id="clip-path-4" transform="translate(14.81 16.81)"><path class="cls-1" d="M51.68,33.39a3,3,0,1,1,3-2.95A3,3,0,0,1,51.68,33.39Z"/></clipPath></defs><g id="Capa_2" data-name="Capa 2"><g id="Layer_2" data-name="Layer 2"><g class="cls-2"><rect class="cls-3" x="-1" y="-3" width="66.67" height="66.67" transform="translate(2.83 48.56) rotate(-45)"/></g><g class="cls-4"><rect class="cls-3" x="-1" y="-3" width="66.67" height="66.67" transform="translate(2.83 48.56) rotate(-45)"/></g><g class="cls-5"><rect class="cls-3" x="-1" y="-3" width="66.67" height="66.67" transform="translate(2.83 48.56) rotate(-45)"/></g><g class="cls-6"><rect class="cls-3" x="-1" y="-3" width="66.67" height="66.67" transform="translate(2.83 48.56) rotate(-45)"/></g></g></g></svg>