<svg xmlns="http://www.w3.org/2000/svg" xmlns:xlink="http://www.w3.org/1999/xlink" viewBox="0 0 73.65 73.65"><defs><style>.cls-1{fill:none;clip-rule:evenodd;}.cls-2{clip-path:url(#clip-path);}.cls-3{fill:url(#linear-gradient);}.cls-4{clip-path:url(#clip-path-2);}</style><clipPath id="clip-path" transform="translate(11.74 11.75)"><path class="cls-1" d="M25,50.15c-.74,0-1.49,0-2.23,0a3,3,0,0,1-2.94-2.41,26.84,26.84,0,0,1-.5-2.82c-.07-.61-.26-1-.9-1.13a2.43,2.43,0,0,1-.92-.34c-1.23-.88-2.22-.49-3.29.39-2.61,2.17-4,2.11-6.38-.51-.62-.69-1.31-1.3-2-2a3,3,0,0,1-.34-4.07c.53-.79,1.14-1.53,1.64-2.34a1.43,1.43,0,0,0,.08-1c-.18-.59-.58-1.13-.72-1.73a1.66,1.66,0,0,0-1.75-1.38,19.47,19.47,0,0,1-2.12-.34A3.09,3.09,0,0,1,0,27.3c0-1.41,0-2.81,0-4.21a3.12,3.12,0,0,1,2.7-3.19c.93-.17,1.88-.28,2.81-.5a1.45,1.45,0,0,0,.72-.61c.17-.27.17-.65.36-.91,1-1.47.63-2.73-.51-3.92a6.46,6.46,0,0,1-.82-1.17,3,3,0,0,1,.38-3.72c1-1.14,2.15-2.24,3.29-3.28a3,3,0,0,1,4-.21c.79.53,1.53,1.14,2.34,1.64a1.35,1.35,0,0,0,1,.08,18.69,18.69,0,0,1,1.81-.75c1-.18,1.19-.8,1.29-1.62s.23-1.53.38-2.29A3.09,3.09,0,0,1,22.78,0c1.47,0,2.93,0,4.39,0a3.11,3.11,0,0,1,3.1,2.69c.17.94.29,1.89.51,2.81a1.25,1.25,0,0,0,.6.72A15,15,0,0,1,33,6.91a1.88,1.88,0,0,0,2.66-.3,12.83,12.83,0,0,1,1.75-1.24A2.86,2.86,0,0,1,41,5.61a49.26,49.26,0,0,1,3.54,3.54,2.89,2.89,0,0,1,.18,3.72c-.55.85-1.2,1.64-1.73,2.5a1.22,1.22,0,0,0-.08.94,16.44,16.44,0,0,0,1,2.3,1.56,1.56,0,0,0,.85.71c1,.24,2,.34,3,.55a3,3,0,0,1,2.42,2.93c0,1.52,0,3,0,4.56a3,3,0,0,1-2.43,2.93c-1,.22-2,.31-3,.56a1.69,1.69,0,0,0-.85.7c-.24.36-.27.87-.52,1.22a2.19,2.19,0,0,0,.36,3.12,9,9,0,0,1,1,1.46,3,3,0,0,1-.37,3.85c-1,1.08-2.09,2.13-3.17,3.17a3,3,0,0,1-3.93.35c-.84-.56-1.64-1.2-2.49-1.74a1.25,1.25,0,0,0-.93-.09,15.58,15.58,0,0,0-2.3,1,1.49,1.49,0,0,0-.71.85c-.25,1-.34,2-.56,3a3,3,0,0,1-3,2.45C26.54,50.17,25.79,50.15,25,50.15ZM22.57,2.86c-.25,1.47-.5,2.84-.71,4.23A1.86,1.86,0,0,1,20.54,8.7c-1.37.5-2.7,1.1-4,1.7a1.73,1.73,0,0,1-1.92-.14c-1-.75-2-1.44-3-2.19a.62.62,0,0,0-1,.07C9.75,9,8.91,9.86,8,10.68c-.4.37-.38.65-.07,1.06.73,1,1.4,2,2.13,3a1.76,1.76,0,0,1,.15,2.06A32.75,32.75,0,0,0,8.7,20.57,1.93,1.93,0,0,1,7,22.07c-1.35.19-2.69.45-4.1.7,0,1.41,0,2.75,0,4.08,0,.6.18.85.78.92,1.18.16,2.35.4,3.53.58a1.85,1.85,0,0,1,1.58,1.36c.48,1.31,1,2.6,1.62,3.86a1.8,1.8,0,0,1-.12,2.08c-.71,1-1.38,2-2.09,2.9-.31.43-.38.74.06,1.15.85.79,1.67,1.62,2.46,2.46a.7.7,0,0,0,1.08.08c1-.75,2-1.44,3-2.19a1.69,1.69,0,0,1,1.91-.15c1.3.58,2.62,1.13,3.95,1.62A1.69,1.69,0,0,1,21.91,43c.19,1.26.41,2.53.67,3.78a.86.86,0,0,0,.6.54q1.88.08,3.75,0a.9.9,0,0,0,.65-.58c.28-1.25.48-2.52.68-3.78a1.69,1.69,0,0,1,1.29-1.42c1.34-.49,2.66-1,3.95-1.64a1.76,1.76,0,0,1,2.06.16c.95.72,2,1.37,2.91,2.09.43.32.73.38,1.13,0,.79-.85,1.62-1.67,2.46-2.47a.67.67,0,0,0,.1-1.06c-.74-1-1.41-2-2.14-3a1.82,1.82,0,0,1-.16-2.07c.6-1.26,1.15-2.55,1.62-3.86A1.79,1.79,0,0,1,43,28.24c1.21-.17,2.4-.44,3.61-.6.58-.07.75-.33.74-.87,0-1.13,0-2.27,0-3.4,0-.55-.19-.78-.76-.85-1.24-.17-2.46-.44-3.7-.63a1.65,1.65,0,0,1-1.38-1.21c-.51-1.36-1.05-2.72-1.67-4a1.76,1.76,0,0,1,.13-2c.75-1,1.45-2.05,2.19-3.05a.63.63,0,0,0-.08-1c-.86-.82-1.71-1.66-2.52-2.53-.38-.4-.66-.36-1.06-.05-1,.72-2,1.38-2.89,2.1a1.85,1.85,0,0,1-2.15.16,32.5,32.5,0,0,0-3.87-1.6A1.91,1.91,0,0,1,28.13,7c-.16-1.15-.38-2.29-.56-3.44-.06-.41-.13-.73-.68-.72C25.49,2.87,24.09,2.86,22.57,2.86Z"/></clipPath><linearGradient id="linear-gradient" x1="-1276.09" y1="2004.01" x2="-1275.47" y2="2004.01" gradientTransform="matrix(0, 265.97, -265.97, 0, 533039, 339352.81)" gradientUnits="userSpaceOnUse"><stop offset="0" stop-color="#e0e219"/><stop offset="1" stop-color="#11b98c"/><stop offset="1" stop-color="#00b696"/></linearGradient><clipPath id="clip-path-2" transform="translate(11.74 11.75)"><path class="cls-1" d="M25.12,35.9A10.82,10.82,0,1,1,35.9,25,10.86,10.86,0,0,1,25.12,35.9ZM25.07,33a8,8,0,0,0,8-7.91,8.11,8.11,0,0,0-8-8,8,8,0,0,0-7.94,8A7.88,7.88,0,0,0,25.07,33Z"/></clipPath></defs><g id="Capa_2" data-name="Capa 2"><g id="Layer_2" data-name="Layer 2"><g class="cls-2"><rect class="cls-3" x="-0.96" y="-0.96" width="52.08" height="52.08" transform="translate(1.36 36.83) rotate(-45)"/></g><g class="cls-4"><rect class="cls-3" x="-0.96" y="-0.96" width="52.08" height="52.08" transform="translate(1.36 36.83) rotate(-45)"/></g></g></g></svg>