<svg xmlns="http://www.w3.org/2000/svg" xmlns:xlink="http://www.w3.org/1999/xlink" viewBox="0 0 80.63 80.63"><defs><style>.cls-1{fill:none;clip-rule:evenodd;}.cls-2{clip-path:url(#clip-path);}.cls-3{fill:url(#linear-gradient);}</style><clipPath id="clip-path" transform="translate(14.28 15.86)"><path class="cls-1" d="M10.86,26.51c-1.08-.4-2.08-.73-3-1.15C6.3,24.68,5,23.83,5,21.85a3.56,3.56,0,0,1,3.41-3.58c.86,0,1.71.08,2.7.13v-.92c0-3-.16-5.93.93-8.8a12.08,12.08,0,0,1,6.37-6.81,16.37,16.37,0,0,1,15.77.32A12.25,12.25,0,0,1,40.87,12c.2,2.08,0,4.19,0,6.27,1,0,1.93-.07,2.83,0A3.64,3.64,0,0,1,47,20.87a3.18,3.18,0,0,1-1.52,3.6,25.48,25.48,0,0,1-3.21,1.64c-.32.16-.66.3-1.08.48a13,13,0,0,0,3.86,5.22,10.9,10.9,0,0,0,4.73,2.27A2.65,2.65,0,0,1,52,36,2.77,2.77,0,0,1,51,39a9.79,9.79,0,0,1-4.84,2.2,1.73,1.73,0,0,0-1.4,1.15,3.58,3.58,0,0,1-4.41,2.17,6.92,6.92,0,0,0-6.14,1.24,14.36,14.36,0,0,1-5.64,2.92,11.52,11.52,0,0,1-8.48-1.49,25.37,25.37,0,0,1-2.75-1.73,6.67,6.67,0,0,0-5.22-1c-.43.05-.86.15-1.29.19C8.52,44.8,7.78,44.26,7,42a1.66,1.66,0,0,0-1-.79C4.86,40.78,3.62,40.42,2.4,40a3.71,3.71,0,0,1-.94-.59c-2.21-1.74-1.86-4.21.72-5.3a31.08,31.08,0,0,0,4.58-2.19A9.87,9.87,0,0,0,10.86,26.51ZM43.79,22c0-.14,0-.28,0-.42a6,6,0,0,0-1.26-.08,7.1,7.1,0,0,0-1.23.41c-2.41.79-3.83-.35-3.65-2.85a46,46,0,0,0,.16-5.38,9.94,9.94,0,0,0-5.38-8.74,13.27,13.27,0,0,0-10.28-1c-3.75,1-6.52,3.32-7.39,7.3a26.2,26.2,0,0,0-.39,4.69c-.05,1.45.12,2.91,0,4.35-.15,1.66-1,2.21-2.62,1.86-.76-.16-1.48-.46-2.23-.61a3.78,3.78,0,0,0-1.09.11c0,.13,0,.26,0,.39.58.25,1.16.5,1.73.77a25.77,25.77,0,0,1,2.73,1.37,2.74,2.74,0,0,1,1.23,3.15,13.75,13.75,0,0,1-6.16,7.85C6.63,35.84,5.29,36.4,4,37a2.68,2.68,0,0,1-.07.27c1.24.3,2.47.68,3.72.88s2.18.77,2.35,2.09c.13,1,.6,1.18,1.5,1A10.26,10.26,0,0,1,20,43.22a11.83,11.83,0,0,0,5.57,2.41,7.78,7.78,0,0,0,5.68-1.87c2.79-2,5.81-3.18,9.3-2.53,1,.19,1.45-.19,1.63-1.1a2.32,2.32,0,0,1,2.27-2,15.94,15.94,0,0,0,2.19-.4,12.24,12.24,0,0,0,1.6-.7l-1.14-.43A15.39,15.39,0,0,1,38.29,28c-.83-2-.27-3.31,1.65-4.3.82-.42,1.72-.7,2.57-1.07C42.94,22.4,43.36,22.16,43.79,22Z"/></clipPath><linearGradient id="linear-gradient" x1="-935.51" y1="1669.18" x2="-934.83" y2="1669.18" gradientTransform="matrix(0, 265.97, -265.97, 0, 443980.86, 248767.69)" gradientUnits="userSpaceOnUse"><stop offset="0" stop-color="#e0e219"/><stop offset="1" stop-color="#11b98c"/><stop offset="1" stop-color="#00b696"/></linearGradient></defs><g id="Capa_2" data-name="Capa 2"><g id="Layer_2" data-name="Layer 2"><g class="cls-2"><rect class="cls-3" x="-2.47" y="-4.05" width="57.01" height="57.01" transform="translate(4.61 41.43) rotate(-45)"/></g></g></g></svg>