<svg xmlns="http://www.w3.org/2000/svg" xmlns:xlink="http://www.w3.org/1999/xlink" viewBox="0 0 79.55 79.55"><defs><style>.cls-1{fill:none;clip-rule:evenodd;}.cls-2{clip-path:url(#clip-path);}.cls-3{fill:url(#linear-gradient);}.cls-4{clip-path:url(#clip-path-2);}.cls-5{clip-path:url(#clip-path-3);}.cls-6{clip-path:url(#clip-path-4);}.cls-7{clip-path:url(#clip-path-5);}.cls-8{clip-path:url(#clip-path-6);}.cls-9{clip-path:url(#clip-path-7);}.cls-10{clip-path:url(#clip-path-8);}</style><clipPath id="clip-path" transform="translate(15.27 18.37)"><path class="cls-1" d="M3.86,23.63c-.84,0-1.54,0-2.23,0A1.45,1.45,0,0,1,0,22.14c0-2.53,0-5.07,0-7.6,0-.94.58-1.4,1.53-1.44h2.3v-1c0-2.22,0-4.44,0-6.65A5.23,5.23,0,0,1,9.31,0Q24.52,0,39.73,0a5.24,5.24,0,0,1,5.41,5.42c0,2.21,0,4.43,0,6.64v1c.81,0,1.53,0,2.25,0,1,0,1.56.5,1.58,1.48q0,3.76,0,7.52a1.47,1.47,0,0,1-1.65,1.52c-.69,0-1.39,0-2.18,0,0,1.48,0,2.9,0,4.31a21.47,21.47,0,0,1-2.06,9.39A20.64,20.64,0,0,1,4.29,32.5a29.36,29.36,0,0,1-.42-4.6C3.8,26.51,3.86,25.11,3.86,23.63ZM24.52,2.9H9.74c-2.18,0-3,.89-3,3.09,0,7.26,0,14.52,0,21.78a18.2,18.2,0,0,0,4.87,12.74,17.83,17.83,0,0,0,21.72,3.25c6-3.6,9-9,9-15.95.06-7.26,0-14.52,0-21.78,0-2.26-.85-3.13-3.1-3.13Zm-20.7,13L2.9,16c0,1.38,0,2.71,0,4,0,.72.29.85.93.63Zm41.36,5c.41-.24.87-.38.88-.53,0-1.47,0-2.93,0-4.41h-.91Z"/></clipPath><linearGradient id="linear-gradient" x1="-598.29" y1="1670.13" x2="-597.62" y2="1670.13" gradientTransform="matrix(0, 265.97, -265.97, 0, 444229.14, 159077.85)" gradientUnits="userSpaceOnUse"><stop offset="0" stop-color="#e0e219"/><stop offset="1" stop-color="#11b98c"/><stop offset="1" stop-color="#00b696"/></linearGradient><clipPath id="clip-path-2" transform="translate(15.27 18.37)"><path class="cls-1" d="M24.5,11.55H38.58c1.49,0,2,.5,2,2v9.62c0,1.5-.51,2-2,2H10.42c-1.48,0-2-.51-2-2,0-3.2,0-6.41,0-9.61,0-1.5.5-2,2-2ZM11.39,22.24H37.58V14.45H11.39Z"/></clipPath><clipPath id="clip-path-3" transform="translate(15.27 18.37)"><path class="cls-1" d="M35.16,28.31a1.44,1.44,0,1,1-2.87,0,1.44,1.44,0,0,1,2.87,0Z"/></clipPath><clipPath id="clip-path-4" transform="translate(15.27 18.37)"><path class="cls-1" d="M33.71,4.62a1.48,1.48,0,0,1,1.45,1.45A1.5,1.5,0,0,1,33.68,7.5,1.46,1.46,0,0,1,32.3,6.09,1.43,1.43,0,0,1,33.71,4.62Z"/></clipPath><clipPath id="clip-path-5" transform="translate(15.27 18.37)"><path class="cls-1" d="M25.91,28.37a1.41,1.41,0,1,1-1.34-1.44A1.44,1.44,0,0,1,25.91,28.37Z"/></clipPath><clipPath id="clip-path-6" transform="translate(15.27 18.37)"><path class="cls-1" d="M15.31,7.49a1.57,1.57,0,0,1-1.47-1.44,1.54,1.54,0,0,1,1.4-1.42A1.46,1.46,0,0,1,16.68,6,1.48,1.48,0,0,1,15.31,7.49Z"/></clipPath><clipPath id="clip-path-7" transform="translate(15.27 18.37)"><path class="cls-1" d="M15.28,26.93a1.42,1.42,0,0,1,0,2.83,1.51,1.51,0,0,1-1.43-1.37A1.48,1.48,0,0,1,15.28,26.93Z"/></clipPath><clipPath id="clip-path-8" transform="translate(15.27 18.37)"><path class="cls-1" d="M25.92,6a1.42,1.42,0,1,1-2.83,0,1.42,1.42,0,0,1,2.83,0Z"/></clipPath></defs><g id="Capa_2" data-name="Capa 2"><g id="Layer_2" data-name="Layer 2"><g class="cls-2"><rect class="cls-3" x="-3.62" y="-6.72" width="56.25" height="56.25" transform="translate(7.31 41.97) rotate(-45)"/></g><g class="cls-4"><rect class="cls-3" x="-3.62" y="-6.72" width="56.25" height="56.25" transform="translate(7.31 41.97) rotate(-45)"/></g><g class="cls-5"><rect class="cls-3" x="-3.62" y="-6.72" width="56.25" height="56.25" transform="translate(7.31 41.97) rotate(-45)"/></g><g class="cls-6"><rect class="cls-3" x="-3.62" y="-6.72" width="56.25" height="56.25" transform="translate(7.31 41.97) rotate(-45)"/></g><g class="cls-7"><rect class="cls-3" x="-3.62" y="-6.72" width="56.25" height="56.25" transform="translate(7.31 41.97) rotate(-45)"/></g><g class="cls-8"><rect class="cls-3" x="-3.62" y="-6.72" width="56.25" height="56.25" transform="translate(7.31 41.97) rotate(-45)"/></g><g class="cls-9"><rect class="cls-3" x="-3.62" y="-6.72" width="56.25" height="56.25" transform="translate(7.31 41.97) rotate(-45)"/></g><g class="cls-10"><rect class="cls-3" x="-3.62" y="-6.72" width="56.25" height="56.25" transform="translate(7.31 41.97) rotate(-45)"/></g></g></g></svg>